<svg id="Nurses" xmlns="http://www.w3.org/2000/svg" viewBox="0 0 609.61 1908.71"><defs><style>.cls-1{fill:#32b9a4;}.cls-2{fill:#455b64;}.cls-3{fill:#263238;}.cls-4{fill:#2ea28c;}.cls-5{fill:#e7515b;}.cls-6{fill:#fbbd9d;}.cls-7{fill:#ec996f;}.cls-8{fill:#fabc9c;}.cls-9{fill:#ebebeb;}</style></defs><path class="cls-1" d="M468.22,515.3l71.26-61.07s-67.35-139.5-184.54-151.91c13.63,59,44.56,116.4,72.61,168C427.55,470.3,455,494.93,468.22,515.3Z"/><path class="cls-2" d="M285.84,1860.51l-9-56.06c-2.61-16.24-21.05-28.12-37.49-27.93-18.41.22-24.44,15.37-24.11,33.78l1.76,98.41H338.78Z"/><path class="cls-2" d="M187.25,1859.31l24.87-51c7.2-14.79,1.42-38.66-12.15-48-15.18-10.4-28.83-1.47-39.14,13.78l-55.12,81.55,54.56,53.07h55l-25.94-28.54Z"/><polygon class="cls-1" points="167.12 853.38 204.97 1848.2 294.14 1851.01 316.44 1354.44 318.89 857.73 167.12 853.38"/><path class="cls-1" d="M279.62,867.05l149.67-25.53,98,526.2.56,3.93a49.28,49.28,0,0,1-.37,15.49L205,1843.52l-74.21-38.65,270.89-441.82Z"/><path class="cls-3" d="M278.4,1033.34c.19,39.89,0,79.77.62,119.63.4,39.87.82,79.73,1.62,119.59l1.05,59.79.53,29.9c0,10-.55,19.91-.8,29.87-.64,19.91-1.34,39.83-1.54,59.76-.47,19.92-.34,39.86-.31,59.82v0a.6.6,0,0,0,.61.6.61.61,0,0,0,.6-.58l4.57-119.57c.3-10,.95-19.93.95-29.89l-.6-29.91-1.2-59.81-4.8-239.26a.65.65,0,0,0-.66-.63A.66.66,0,0,0,278.4,1033.34Z"/><path class="cls-3" d="M397.69,990.49l23.17,97.27,24.06,97,48.21,194.07.51-3L352,1586.92l-70.81,105.52-70,106.08a.59.59,0,0,0,.16.83.6.6,0,0,0,.83-.16l284.85-421a.43.43,0,0,0,.06-.33L399,990.17a.65.65,0,0,0-.79-.47A.67.67,0,0,0,397.69,990.49Z"/><path class="cls-4" d="M168.16,880.54c170.14,28.18,257.29-2.12,267.35-6.06l3.68,20.19S352.11,938,169,902.05Z"/><polygon class="cls-4" points="310.3 1491.21 198.12 1668.1 199.08 1693.42 309.29 1513.67 310.3 1491.21"/><path class="cls-3" d="M319.54,1019c.9-4.89,1.4-9.79,2.11-14.69l1.46-14.71c.89-9.8,1.27-19.63,1.91-29.45.15-9.84.6-19.67.5-29.51l-.25-14.78c-.3-4.93-.39-9.86-.88-14.8V901a.59.59,0,0,0-.65-.51.57.57,0,0,0-.54.55l-2.26,59-2.69,59a.65.65,0,0,0,1.28.13Z"/><path class="cls-3" d="M308.74,1513.33c-5.19,7.13-10,14.47-15.05,21.69l-14.5,22c-9.6,14.72-18.76,29.72-28.15,44.57-9,15.12-18.18,30.08-26.93,45.32l-13,22.92c-4.17,7.75-8.5,15.4-12.5,23.25l0,0a.6.6,0,0,0,.27.81.59.59,0,0,0,.78-.22l54.95-90L309.85,1514a.65.65,0,0,0-.22-.89.64.64,0,0,0-.86.17Z"/><polygon class="cls-4" points="300.55 1708.26 299.61 1729.24 228.74 1848.95 204.97 1848.2 204.96 1843.52 300.55 1708.26"/><path class="cls-3" d="M205.49,1843.9c4.55-5.24,8.77-10.7,13.17-16.05l12.64-16.41c8.36-11,16.3-22.28,24.46-33.42,7.76-11.42,15.76-22.67,23.31-34.23l11.25-17.41c3.57-5.93,7.3-11.73,10.72-17.77l0,0a.6.6,0,0,0-.22-.82.61.61,0,0,0-.79.18l-47.64,67.74-48,67.49a.64.64,0,0,0,.15.9.65.65,0,0,0,.87-.1Z"/><path class="cls-1" d="M151.85,878.49l44.08-189.24C214,507.76,183.4,424.1,208,347.35c8.6-26.79,15-50.92,43.09-51,0,0,65.62,2.61,97.1,5.1a65.19,65.19,0,0,1,18.06,3.83c62.6,23.72,86.25,111.42,86.25,174.41,0,51.6-18.27,110.27-20.94,118.55l-.31,90L441.8,876.1S342.77,918.17,151.85,878.49Z"/><ellipse class="cls-3" cx="240.16" cy="60.17" rx="48.52" ry="44.18" transform="translate(67.97 238.07) rotate(-60)"/><ellipse class="cls-5" cx="253.67" cy="73.68" rx="26.51" ry="24.14" transform="translate(63.03 256.52) rotate(-60)"/><path class="cls-3" d="M226.84,128.57c0,30.75,10.25,63.13,33.38,92.37,16.55,16.06,34,10.8,57.78,10.8,51.81,0,84.49-46.13,84.49-103s-32.68-103-84.49-103S226.84,71.67,226.84,128.57Z"/><path class="cls-6" d="M260.06,306.82l75.81,38.31,11.81-38.31v-125c0-25.7-19.61-46.52-43.81-46.52h0c-24.19,0-43.81,20.82-43.81,46.52Z"/><path class="cls-7" d="M347.68,262l-24.13-31.29L269,200.88s23.2,68.94,78.73,87.26Z"/><path class="cls-6" d="M324.49,255.41a63.4,63.4,0,0,0,28.44,6.6h0a42.4,42.4,0,0,0,41.37-34.4c8.27-45.1,9.07-89.56,7.6-124-1.57-36.7-31.27-64.81-68.1-64.81h0c-39.24,0-72.37,31.81-74,71.05l.42,64C260.22,195.29,287.66,236.91,324.49,255.41Z"/><path class="cls-3" d="M374.22,152.87a6,6,0,1,0,6-6A6,6,0,0,0,374.22,152.87Z"/><path class="cls-3" d="M317.25,152.87a6,6,0,1,0,6-6A6,6,0,0,0,317.25,152.87Z"/><path class="cls-3" d="M359.57,161.67c0,1.78.27,3.5.4,5.25l.8,5.16c.54,3.45,1.38,6.82,2.22,10.19l.71,2.51a4.15,4.15,0,0,1,.2,1.61,4.23,4.23,0,0,1-1.54,2.88c-.91.83-2.13.92-4,1.06-1.74.27-3.47.42-5.21.82l-.09,0a.38.38,0,0,0-.29.45.37.37,0,0,0,.36.29l5.19.1c1.65,0,3.63.2,5.2-.86a6.18,6.18,0,0,0,2.91-4.4c.27-1.87-.55-3.54-.9-5.19l-5.12-20.07a.41.41,0,0,0-.49-.3.41.41,0,0,0-.31.4Z"/><path class="cls-3" d="M399.05,131.36c-4.19-3.51-9.05-4.91-14-5.6-4.92-.51-10.06-.25-14.9,2.23l-.26.13a.55.55,0,0,0-.24.76.56.56,0,0,0,.52.31,106.41,106.41,0,0,1,14.38.64,122.12,122.12,0,0,1,14.13,2.79.62.62,0,0,0,.76-.44.64.64,0,0,0-.2-.63Z"/><path class="cls-3" d="M337.42,127.22c-5-2.28-10.07-2.35-15-1.7-4.9.82-9.82,2.45-13.84,6.14l-.21.19a.58.58,0,0,0,0,.81.56.56,0,0,0,.58.16,102.9,102.9,0,0,1,14.1-3.25,122.69,122.69,0,0,1,14.43-1,.61.61,0,0,0,.61-.62.62.62,0,0,0-.36-.56Z"/><path class="cls-3" d="M391.47,142.79a9.32,9.32,0,0,0-3.71-2.46,11.78,11.78,0,0,0-4.27-.81,11.28,11.28,0,0,0-4.32.78,8.72,8.72,0,0,0-3.69,2.52l-.13.15a.37.37,0,0,0,0,.51.34.34,0,0,0,.35.05,21.29,21.29,0,0,1,7.71-1.42,25.08,25.08,0,0,1,7.71,1.45.38.38,0,0,0,.5-.23.37.37,0,0,0-.07-.38Z"/><path class="cls-3" d="M334.36,142.79a9.19,9.19,0,0,0-3.71-2.46,11.74,11.74,0,0,0-4.27-.81,11.23,11.23,0,0,0-4.31.78,8.66,8.66,0,0,0-3.69,2.52l-.13.15a.36.36,0,0,0,0,.51.36.36,0,0,0,.36.05,21.25,21.25,0,0,1,7.71-1.42,25.13,25.13,0,0,1,7.71,1.45.39.39,0,0,0,.5-.23.37.37,0,0,0-.07-.38Z"/><path class="cls-3" d="M325,26c53.39,0,80.29,38.53,80.29,77,0,0-47-27.69-117-13.14,10.41,30-12.26,44.65-12.26,44.65S278,151,263,151c-1.69,0-2.17,3.63-2.17,5,0,1.55-.73,44.83-.73,44.83-3-4.61-3.52-26.73-3.52-43.66,0-13.13-24.22-70.8,7-97.36C290.38,37.11,300.19,26,325,26Z"/><path class="cls-7" d="M339.79,208.69c-1.07,3.5,1.6,7.42,6,8.75s8.77-.44,9.83-3.95-1.6-7.42-6-8.75S340.85,205.18,339.79,208.69Z"/><path class="cls-3" d="M332.8,200.47a18.91,18.91,0,0,0,5.15,7.88,22.89,22.89,0,0,0,8.27,4.94c6.16,2,13.09,1.61,18.44-1.76l.17-.11a.52.52,0,0,0,.17-.72.53.53,0,0,0-.56-.24,32.6,32.6,0,0,1-17-.68,30,30,0,0,1-13.69-10.05.58.58,0,0,0-.8-.1.57.57,0,0,0-.19.64Z"/><path class="cls-3" d="M292.73,82.08l-4.45,7.74c60.62,0,124.44,21.44,120.78,60.68a1.18,1.18,0,0,0,2.27.51c22.46-57.32-13.95-102.55-46.78-116.35-6,17.75-15.65,43.44-15.65,43.44Z"/><path class="cls-6" d="M250.88,138.54a14.36,14.36,0,0,1,14.36,14.36v27a2.23,2.23,0,0,1-2.23,2.23,25.92,25.92,0,0,1-25.92-25.93v-3.87A13.78,13.78,0,0,1,250.88,138.54Z"/><path class="cls-7" d="M260.46,154.89a9.76,9.76,0,0,0-1.68-2,20.65,20.65,0,0,0-2.08-1.36,11.61,11.61,0,0,0-4.87-1.34,10.27,10.27,0,0,0-5.11,1.08,11.75,11.75,0,0,0-2.17,1.49,7.83,7.83,0,0,0-1.5,2.16l-.1.2a.41.41,0,0,0,.2.54.4.4,0,0,0,.42,0,12.67,12.67,0,0,1,8.13-2.47,20.54,20.54,0,0,1,8.29,2.53.43.43,0,0,0,.59-.18.42.42,0,0,0,0-.42Z"/><path class="cls-7" d="M249.34,152a11.19,11.19,0,0,0-1.47,2.19,21.76,21.76,0,0,0-.8,2.44,12.22,12.22,0,0,0-.09,5.18,11.74,11.74,0,0,0,2.16,4.8,15.56,15.56,0,0,0,1.8,1.91,9.82,9.82,0,0,0,2.33,1.29l.23.08a.4.4,0,0,0,.51-.25.39.39,0,0,0-.08-.39,17.78,17.78,0,0,1-4-8,22.58,22.58,0,0,1,.37-9,.43.43,0,0,0-.32-.51.41.41,0,0,0-.41.12Z"/><path class="cls-3" d="M272,132c-1.12,7.32-1.9,14.67-2.39,22s-.67,14.77-.79,22.17c.06,7.39.24,14.8.77,22.18a217.35,217.35,0,0,0,2.71,22,.24.24,0,0,0,.27.21.25.25,0,0,0,.21-.27,380.4,380.4,0,0,1-2.32-44.14c.08-14.74.72-29.49,2.06-44.17a.26.26,0,0,0-.24-.28A.28.28,0,0,0,272,132Z"/><path class="cls-3" d="M281.69,37.15a41.35,41.35,0,0,0-3.37-12.74,41.83,41.83,0,0,0-7.5-11A45.29,45.29,0,0,0,247.6.86,33.94,33.94,0,0,0,234.12.54a24.3,24.3,0,0,0-11.87,6.4c-3.28,3.05-5.89,6.58-8.83,9.67s-6.3,5.86-10.56,6.67a.24.24,0,0,0-.2.28.25.25,0,0,0,.27.2c4.42-.62,8.25-3.27,11.25-6.4s5.7-6.58,8.91-9.48A22.93,22.93,0,0,1,234.4,2a32.43,32.43,0,0,1,12.86.49A43.82,43.82,0,0,1,269.9,14.34a41.57,41.57,0,0,1,11.28,22.85.26.26,0,0,0,.28.24A.27.27,0,0,0,281.69,37.15Z"/><path class="cls-3" d="M199.22,44a49.51,49.51,0,0,0-3,8.23,61.44,61.44,0,0,0-1.36,8.66,55.91,55.91,0,0,0,1.46,17.52c1.64,5.63,3.67,11.24,6.93,16.13a67.58,67.58,0,0,0,5.11,7.1c1.92,2.2,4.07,4.17,6.07,6.24a.24.24,0,0,0,.34,0,.26.26,0,0,0,0-.34c-1.85-2.19-3.84-4.27-5.57-6.55a68.28,68.28,0,0,1-4.76-7.15A59.8,59.8,0,0,1,198,78,57.26,57.26,0,0,1,196.31,61a53.43,53.43,0,0,1,3.39-16.75.26.26,0,0,0-.15-.34A.27.27,0,0,0,199.22,44Z"/><path class="cls-2" d="M263,28.45a40.67,40.67,0,0,0-17-6.75,35.29,35.29,0,0,0-18.47,2.1A39,39,0,0,0,212.76,35,36.49,36.49,0,0,0,207.93,43a36.84,36.84,0,0,0-2.44,8.85l.47.1a36.19,36.19,0,0,1,7.86-16,38.84,38.84,0,0,1,14.35-10.63,34.87,34.87,0,0,1,17.68-2.22,44.54,44.54,0,0,1,16.91,5.8Z"/><path class="cls-2" d="M222.21,40.35a36.53,36.53,0,0,0-9.64,23.3,27.89,27.89,0,0,0,2.72,12.67,29.91,29.91,0,0,0,3.37,5.5,44.57,44.57,0,0,0,4.42,4.58l.35-.33c-2.71-3.11-5.36-6.39-6.86-10.28a27.81,27.81,0,0,1-2.37-12.1,37.16,37.16,0,0,1,2.47-12.14,44.94,44.94,0,0,1,6-10.88Z"/><path class="cls-2" d="M276.22,67.81A95.3,95.3,0,0,1,291,58.68a112.71,112.71,0,0,1,32.64-10.8,145.5,145.5,0,0,1,17.29-1.81l0-.48a104.39,104.39,0,0,0-17.5.91,97.85,97.85,0,0,0-33.14,10.94,77.08,77.08,0,0,0-14.41,10Z"/><path class="cls-2" d="M283.62,76.17a80.46,80.46,0,0,1,11.17-3.63q5.65-1.58,11.44-2.6a176.31,176.31,0,0,1,23.26-2.73,201.64,201.64,0,0,1,23.45.14c7.83.42,15.62,1.35,23.45,2.36l.1-.47c-3.89-.66-7.77-1.42-11.67-2-3.93-.41-7.82-1.09-11.77-1.28a181.22,181.22,0,0,0-23.65-.39,161,161,0,0,0-23.46,3,103.5,103.5,0,0,0-22.56,7.14Z"/><path class="cls-1" d="M133.34,529.94,57.76,474s88.7-171.72,191.7-177.64c-13.63,59-35,123.67-67.76,173.87C181.7,470.27,146.53,509.57,133.34,529.94Z"/><path class="cls-8" d="M120.47,385.41c-11.49,16.68-22.14,33.81-32.64,51s-20.57,34.66-30.4,52.24S37.76,523.81,28.9,541.92,11.39,578.23,4.33,597.31l-2.57,7a28.69,28.69,0,0,0,2.15,24.32L114.1,816.34a20.52,20.52,0,0,0,36.52-18.56L63.83,598.11l-.42,31.27c12.15-16.31,22.76-33.47,33.07-50.79s19.73-35.11,29.1-52.93,18.43-35.83,27.24-54,17.27-36.45,25-55.16a32.81,32.81,0,0,0-57.34-31.13Z"/><path class="cls-8" d="M150.68,802.81q12.75,4.65,25.59,9.05c8.64,2.67,17.34,5.17,26,7.75l.18.06a5.38,5.38,0,0,0,1.72.21c3.58-.17,7.15-.25,10.73-.49s7.14-.49,10.71-.94a5.19,5.19,0,0,0-.16-10.32c-3.58-.33-7.16-.48-10.74-.6s-7.16-.09-10.74-.14l1.9.26-25.76-7.82c-8.51-2.85-17.06-5.58-25.64-8.25a5.93,5.93,0,0,0-3.79,11.23Z"/><path class="cls-8" d="M143.33,812.69c9.56,4.4,19.11,8.85,28.79,13l29.24,11.86.24.1a5.76,5.76,0,0,0,2.21.41c8.94-.12,17.87-.2,26.81-.89a5.32,5.32,0,0,0,.16-10.6c-8.91-1-17.84-1.31-26.77-1.71l2.46.51-28.8-12.47c-4.82-2-9.53-4.3-14.31-6.43L149,800.09a6.91,6.91,0,0,0-5.69,12.6Z"/><path class="cls-8" d="M141.8,825.4c9.88,5.34,19.83,10.55,29.79,15.72l.08,0a5.05,5.05,0,0,0,.53.24c9.55,3.65,19.06,7.43,28.65,11l.17.07a5.67,5.67,0,0,0,1.39.3q10.17.81,20.4,1.2a5,5,0,0,0,.92-10q-10.12-1.47-20.28-2.56l1.56.37c-9.46-3.91-19-7.61-28.49-11.42l.6.28c-9.89-5.32-19.8-10.6-29.79-15.74a5.93,5.93,0,0,0-5.53,10.48Z"/><path class="cls-8" d="M146.47,838.92q9.53,6,19.2,11.82l.16.09a3.61,3.61,0,0,0,.44.22c6.85,2.93,13.68,5.92,20.57,8.8l.23.1a3.35,3.35,0,0,0,.75.21c6.13,1.05,12.27,2,18.48,2.68a3.62,3.62,0,0,0,1.41-7.06c-6-1.78-12-3.24-18.09-4.63l1,.32c-6.72-3.25-13.49-6.37-20.23-9.56l.59.31q-9.47-6.12-19.07-12a5.13,5.13,0,0,0-5.43,8.71Z"/><path class="cls-6" d="M173.93,783.7c-18.43-2.6-29.36-2.18-38.52-3-2.61-.22-4.91.6-5.79,2.63l-13.53,31.14c-1,2.29,2.41,9.1,5,10.66l21.08,12.06,24.67,13.29c2,1,4.35.24,4.82-1.61l11.58-45c.42-1.63-.9-3.39-2.82-4-11.47-3.57-18.36-7.44-8.83-6.11Z"/><path class="cls-1" d="M89.32,495.86c10.08,7.64,19.93,15.78,30.12,23.33L117.86,518q-12.93-10,2.78,2.12c-.41-.29-.8-.6-1.2-.9,4.64,3.57,9.27,7.17,13.9,10.75,25.84-46.85,53.95-100.16,62-124.07,5.15-15.2-1.61-31.63-17.28-35.12l-26.6-5.93c-9.17-2.05-15.38-.64-22.11,5.89C106.71,392.71,80.86,433,57.76,474A381.3,381.3,0,0,1,89.32,495.86Z"/><path class="cls-9" d="M257.46,317.57c5.37,3.37,82.17,46.38,82.17,46.38l13.17-48.3-1.12-.58-13.63,43.58c-22.4-11.72-57.89-29.92-80.2-41.81Z"/><path class="cls-3" d="M430.87,599.38,430.39,619l-.07,19.61c0,13.08.33,26.15.5,39.22.47,13.07.76,26.14,1.39,39.19l1,19.59,1.42,19.56a.38.38,0,0,0,.4.36.39.39,0,0,0,.36-.39l-2-78.38-1.72-78.39a.4.4,0,0,0-.42-.4A.42.42,0,0,0,430.87,599.38Z"/><path class="cls-3" d="M202.44,600.72l.48-19.62.07-19.61c0-13.07-.33-26.14-.5-39.22-.47-13.06-.76-26.13-1.39-39.19l-1-19.58-1.42-19.56a.38.38,0,0,0-.4-.37.4.4,0,0,0-.36.4l2,78.38,1.72,78.38a.41.41,0,0,0,.42.41A.43.43,0,0,0,202.44,600.72Z"/><path class="cls-3" d="M176.63,477.17c4.1-5.75,8.64-10.48,12.84-17.75,3.72-6,7.28-12.12,10.73-18.3a331.41,331.41,0,0,0,18.08-38.47,203.15,203.15,0,0,0,6.48-20.35,101.91,101.91,0,0,0,3.54-21.18c.34-7.17-.14-14.58-2.72-21.45A28.61,28.61,0,0,0,211.26,324l0,0a.39.39,0,0,0-.5.19.38.38,0,0,0,.17.5A27.36,27.36,0,0,1,224,340.23c2.3,6.6,2.62,13.75,2.12,20.72a109,109,0,0,1-3.72,20.72,199.74,199.74,0,0,1-6.53,20.06,360.05,360.05,0,0,1-17.64,38.35c-6.59,12.44-14.64,24.83-22.28,36.64a.42.42,0,0,0,.12.57A.43.43,0,0,0,176.63,477.17Z"/><path class="cls-3" d="M71.71,616.94c-2,.11-4,.27-6,.24s-4,.11-6,0c-4-.07-7.93-.12-11.87-.54-4-.19-7.9-.68-11.85-1.16s-7.92-1.08-12-1.44H24a.33.33,0,0,0-.33.35.35.35,0,0,0,.23.39,120.88,120.88,0,0,0,11.81,2.87,108,108,0,0,0,12,1.58,97.54,97.54,0,0,0,12.09.18,60.14,60.14,0,0,0,12.08-1.72.42.42,0,0,0,.27-.48.34.34,0,0,0-.34-.32Z"/><path class="cls-7" d="M143.12,781.24a42.47,42.47,0,0,1-.28,5,31.14,31.14,0,0,1-.63,4.76,29.75,29.75,0,0,1-3.06,8.62,23.84,23.84,0,0,1-5.69,7c-2.3,2.14-5.14,3.66-8,5.51l-.12.07a.37.37,0,0,0-.11.51.36.36,0,0,0,.45.15c1.58-.62,3.21-1.11,4.74-1.84a27.52,27.52,0,0,0,4.37-2.6,21.57,21.57,0,0,0,6.69-7.55,25.29,25.29,0,0,0,3-9.66,32,32,0,0,0-.53-10.14.4.4,0,0,0-.48-.31.41.41,0,0,0-.32.38Z"/><path class="cls-8" d="M431.78,416.54c7.73,18.71,16.28,37,25,55.16s17.86,36.14,27.24,54,18.75,35.64,29.1,52.93,20.92,34.48,33.07,50.79l-.42-31.27L459,797.78a20.52,20.52,0,0,0,36.52,18.56L605.68,628.58a28.42,28.42,0,0,0,2.2-24.19l-2.62-7.08c-7.06-19.08-15.66-37.32-24.57-55.39S562,506.24,552.16,488.67s-20-35-30.4-52.24-21.15-34.34-32.64-51a32.81,32.81,0,0,0-57.34,31.13Z"/><path class="cls-8" d="M456.15,789.8q-12.87,4-25.63,8.25l-25.77,7.82,1.9-.26c-3.58,0-7.16,0-10.74.14s-7.16.27-10.74.6a5.19,5.19,0,0,0-.16,10.32c3.57.45,7.14.71,10.72.94s7.15.32,10.72.49a5.33,5.33,0,0,0,1.7-.21l.2-.06c8.67-2.58,17.36-5.08,26-7.75q12.86-4.38,25.59-9.05a5.93,5.93,0,0,0-3.79-11.23Z"/><path class="cls-8" d="M461.6,798.31l-14.34,6.35c-4.77,2.13-9.49,4.39-14.3,6.43l-28.8,12.47,2.45-.51c-8.93.4-17.85.75-26.77,1.71a5.32,5.32,0,0,0,.16,10.6c8.94.69,17.88.77,26.81.89a5.72,5.72,0,0,0,2.19-.4l.26-.11,29.25-11.86c9.68-4.12,19.22-8.57,28.78-13a6.91,6.91,0,0,0-5.69-12.6Z"/><path class="cls-8" d="M463.29,813.14c-10,5.14-19.9,10.42-29.79,15.74l.6-.28c-9.49,3.81-19,7.51-28.48,11.42l1.55-.37q-10.16,1.08-20.28,2.56a5,5,0,0,0,.92,10q10.23-.4,20.41-1.2a5.58,5.58,0,0,0,1.36-.29l.19-.08c9.59-3.56,19.1-7.34,28.66-11a4.74,4.74,0,0,0,.51-.24l.09,0c10-5.17,19.91-10.38,29.79-15.72a5.92,5.92,0,0,0-5.53-10.48Z"/><path class="cls-8" d="M458.72,828.43q-9.62,5.87-19.07,12l.59-.31c-6.74,3.19-13.51,6.32-20.23,9.56l1-.32c-6.06,1.39-12.11,2.85-18.09,4.63a3.62,3.62,0,0,0,1.41,7.06c6.21-.65,12.35-1.63,18.48-2.68a3,3,0,0,0,.74-.21l.25-.1c6.88-2.88,13.71-5.87,20.57-8.8a3.17,3.17,0,0,0,.41-.21l.18-.1q9.68-5.79,19.2-11.81a5.14,5.14,0,0,0-5.43-8.72Z"/><path class="cls-6" d="M436.53,781.92c18.43-2.6,29.52-2.18,38.68-2.95,2.61-.22,4.91.6,5.79,2.63l13.54,31.14c1,2.3-2.41,9.1-5,10.66l-21.07,12.06-24.68,13.29c-2,1-4.34.24-4.82-1.61l-11.57-45c-.42-1.63.89-3.39,2.81-4,11.47-3.57,16.45-6.86,6.92-5.53Z"/><path class="cls-1" d="M468.22,515.3c15.23-10.62,31.1-20.33,46.13-29.95q16.1-10.29,32.34-20.34c-21.75-37.81-45.48-73.92-66.49-94.3-6.74-6.53-12.95-7.94-22.12-5.89l-26.6,5.93c-15.67,3.49-22.43,19.92-17.28,35.12C421.46,427.32,444.83,472.42,468.22,515.3Z"/><path class="cls-3" d="M537.08,618.58a36.92,36.92,0,0,0,11.21,4,66.56,66.56,0,0,0,11.6,1.06,72.68,72.68,0,0,0,11.55-1.38c1.91-.39,3.79-1,5.67-1.49,1.86-.7,3.72-1.36,5.54-2.2l0,0a.42.42,0,0,0,.17-.49c-.05-.18-.19-.28-.33-.24a112.55,112.55,0,0,1-11.28,2.26,96.68,96.68,0,0,1-11.39,1,85.4,85.4,0,0,1-11.4-.69,55,55,0,0,1-11.19-2.56c-.17-.06-.34.06-.39.28a.46.46,0,0,0,.17.49Z"/><path class="cls-7" d="M466.76,780.1a22.94,22.94,0,0,0-2.08,10.3,22.3,22.3,0,0,0,2.73,10.5,19.81,19.81,0,0,0,7.62,7.81,26.92,26.92,0,0,0,4.86,2.23,37.23,37.23,0,0,0,5.15.95h0a.38.38,0,0,0,.43-.34.39.39,0,0,0-.25-.4c-1.55-.59-3.15-1-4.66-1.74a26.93,26.93,0,0,1-4.29-2.49,20.81,20.81,0,0,1-6.61-7.28c-3.18-5.85-3.56-12.95-2.14-19.33a.41.41,0,0,0-.77-.27Z"/><path class="cls-3" d="M422.59,360a231.81,231.81,0,0,1,22.62,63.33,277.68,277.68,0,0,1,5.05,67q-.57,16.83-2.73,33.59c-1.46,11.15-3.53,22.22-5.8,33.25s-5.11,21.94-8.3,32.76A330.21,330.21,0,0,1,422.6,622v0a.39.39,0,0,0,.21.5.4.4,0,0,0,.5-.21,379,379,0,0,0,20.57-64.66,361.76,361.76,0,0,0,9-67.23,272.48,272.48,0,0,0-5.46-67.54,217.05,217.05,0,0,0-24.08-63.28.43.43,0,0,0-.57-.16.42.42,0,0,0-.16.55Z"/><path class="cls-3" d="M448.06,529.11q-5.47,4-11.1,7.66l-12.51-11.13c-4.35-3.83-8.64-7.74-13-11.52-.55-7.09-.83-14.25-1-21.42-.25-7.44-.41-14.91-.42-22.37v0a.36.36,0,0,0-.33-.38.38.38,0,0,0-.36.38c-.43,14.95-.6,29.91.27,44.83a.33.33,0,0,0,.1.23l27,24.27a.18.18,0,0,0,.24,0c3.6-2.36,7.14-4.83,10.65-7.37C447.69,531.21,447.87,530.16,448.06,529.11Z"/><path class="cls-3" d="M451.89,462.83c-4,.05-7.92.2-11.89.07-4.53.18-9.05.08-13.59.16l-6.82.11c-2.29.14-4.56.12-6.86.29h-.06a.37.37,0,0,0-.32.36.38.38,0,0,0,.3.42A247.12,247.12,0,0,0,440,465.38q6,0,12.05-.4C452,464.26,451.93,463.55,451.89,462.83Z"/></svg>