<svg xmlns="http://www.w3.org/2000/svg" width="491" height="481" fill="none" viewBox="0 0 491 481"><g filter="url(#filter0_d_29_160)"><path fill="#32B9A4" d="M215.943 368.293C215.662 345.437 213.086 336.562 204.514 325.704C204.514 325.704 201.078 307.409 193.381 292.552C193.381 292.552 192.242 239.965 182.53 220.53C182.53 220.53 177.955 208.961 178.252 197.806L176.452 183.428C166.376 185.791 156.4 186.683 147.085 186.683C120.757 186.683 99.8633 179.577 97.6005 178.784L97.4518 178.767C96.114 181.676 94.0328 186.518 92.1169 192.236C92.1169 192.236 79.5476 219.488 86.9306 266.639C90.9277 292.172 79.878 324.366 79.878 324.366C79.878 324.366 68.6466 339.421 71.3058 372.755C73.486 399.974 74.477 428.995 73.6346 445.372H86.6333C86.0057 428.301 88.8301 393.397 102.143 370.276C102.143 370.276 109.195 361.897 106.14 327.985C106.14 327.985 114.712 316.168 115.472 298.832C116.231 281.496 124.605 260.16 127.083 236.907C129.56 213.655 144.607 243.006 148.026 257.301C151.462 271.597 168.21 319.226 179.061 331.422C179.061 331.422 180.746 359.65 197.345 390.488C203.011 401.015 205.339 429.606 206.198 445.389H220.964C219.081 429.59 216.174 387.827 215.943 368.293Z"/><path fill="#32B9A4" d="M187.369 69.9237C187.369 69.9237 184.941 66.4862 177.806 67.6431C172.834 68.4364 168.688 70.684 162.28 71.5929C166.359 76.6335 166.079 87.5905 164.477 109.984C166.128 110.959 168.787 113.041 171.281 117.239C171.513 117.619 171.546 118.065 171.43 118.462C173.164 121.619 174.783 125.866 175.939 131.584C176.369 133.732 175.146 135.914 173.082 136.658C172.305 136.939 171.513 137.17 170.72 137.368C170.456 138.641 169.316 139.583 167.962 139.566C166.442 139.533 165.22 138.277 165.253 136.74C165.286 135.22 166.541 133.997 168.077 134.03C169.019 134.046 169.844 134.542 170.323 135.269C171.001 135.104 171.678 134.889 172.355 134.658C173.429 134.278 174.056 133.137 173.842 132.014C172.735 126.527 171.182 122.478 169.547 119.52C169.167 119.421 168.837 119.189 168.622 118.826C166.013 114.463 163.337 112.826 162.329 112.347C161.305 112.793 158.564 114.314 155.789 118.578C155.557 118.941 155.194 119.173 154.814 119.239C153.08 122.131 151.379 126.097 150.074 131.551C149.81 132.658 150.404 133.832 151.445 134.245C152.105 134.509 152.783 134.741 153.46 134.939C153.972 134.228 154.814 133.765 155.756 133.799C157.275 133.832 158.497 135.088 158.464 136.625C158.431 138.145 157.176 139.368 155.64 139.335C154.286 139.302 153.196 138.327 152.981 137.038C152.205 136.806 151.428 136.542 150.652 136.228C148.62 135.402 147.481 133.187 147.993 131.055C149.364 125.387 151.164 121.205 153.014 118.115C152.915 117.718 152.964 117.272 153.212 116.908C156.235 112.281 159.323 110.364 160.909 109.637C162.428 88.3177 162.891 77.5094 159.257 73.6091C158.564 72.8489 157.721 72.3366 156.681 72.0061C156.251 72.0061 155.838 72.0061 155.392 72.0061L153.708 73.0803C149.876 80.0875 141.419 88.4169 141.056 88.7804L139.734 90.0695L138.496 88.6978C134.053 83.8225 124.06 72.4523 121.979 70.0725C121.186 69.9072 120.426 69.8081 119.667 69.7585C123.581 74.9478 123.135 85.7561 122.722 95.3415C122.623 97.5725 122.54 99.6879 122.524 101.555C125.447 102.349 127.578 105.026 127.545 108.199C127.512 111.967 124.423 114.991 120.658 114.958C116.892 114.925 113.869 111.835 113.902 108.067C113.935 104.943 116.066 102.332 118.94 101.555C118.956 99.6218 119.055 97.4734 119.138 95.1927C119.501 86.6651 119.997 74.9974 116.347 71.3781C115.686 70.717 114.91 70.37 113.968 70.2873C111.094 71.031 108.633 72.3862 106.767 73.7083C102.968 76.3856 99.0866 79.0133 95.1886 81.5584C89.672 86.5824 81.6284 93.9698 73.5352 101.737C75.319 105.175 79.5142 111.488 87.9708 116.76C93.2892 112.397 98.0626 108.397 100.408 106.249C100.408 106.249 102.869 122.775 112.217 133.683C116.743 138.955 107.362 164.488 99.0536 175.577C103.447 177.098 139.156 188.699 175.956 179.907L175.625 177.313C175.625 177.313 170.109 154.457 174.486 139.963C176.484 133.369 187.435 116.71 185.915 99.754C190.127 105.604 189.962 105.406 195.379 112.546C200.4 110.166 206.512 105.918 210.476 98.5476C201.16 85.9379 191.729 74.0884 187.369 69.9237ZM147.58 106.794C145.664 106.927 143.715 106.993 141.766 107.026C141.766 108.959 141.766 110.909 141.766 112.843C139.916 112.959 138.066 112.959 136.216 112.843C136.216 110.909 136.216 108.959 136.216 107.026C134.267 106.993 132.318 106.91 130.402 106.794C130.402 105.125 130.402 103.472 130.402 101.803C132.318 101.671 134.267 101.605 136.216 101.572C136.216 99.6383 136.216 97.6882 136.216 95.7546C138.066 95.6389 139.916 95.6389 141.766 95.7546C141.766 97.6882 141.766 99.6383 141.766 101.572C143.715 101.605 145.664 101.688 147.58 101.803C147.58 103.472 147.58 105.125 147.58 106.794Z"/><path fill="#32B9A4" d="M116.181 108.067C116.165 110.579 118.18 112.645 120.69 112.678C123.201 112.694 125.265 110.678 125.298 108.166C125.315 105.654 123.3 103.588 120.789 103.555C118.279 103.522 116.198 105.538 116.181 108.067ZM120.773 105.34C122.292 105.356 123.515 106.596 123.515 108.133C123.498 109.653 122.259 110.876 120.723 110.876C119.204 110.86 117.982 109.62 117.982 108.083C117.998 106.546 119.237 105.323 120.773 105.34Z"/><path fill="#FFDAC2" d="M46.9932 93.606C46.9932 93.606 60.0414 94.7794 76.5086 89.2595L79.4651 87.392C87.6905 82.2192 96.4444 76.6333 104.752 70.7664C108.865 67.8577 115.439 64.8003 123.383 66.7009L123.928 66.8331L124.308 67.2628C124.424 67.395 134.483 78.8644 139.9 84.88C142.477 82.2192 148.175 76.0053 150.818 70.9647L151.032 70.5516L151.957 69.9566C151.396 67.2463 150.619 61.9413 151.676 56.785C151.676 56.785 158.349 50.9677 159.571 37.2507C159.571 37.2507 162.049 35.7303 162.049 30.9706C162.049 26.211 159.01 26.211 159.01 26.211C159.01 26.211 162.33 0 136.91 0C87.6905 0 84.255 64.7838 6.09763 58.3054C6.09763 58.3054 14.8515 63.6435 20.2855 63.1642C20.2855 63.1642 11.4325 65.1639 4 65.4449C4 65.4449 18.0888 72.9644 26.5619 71.3448C26.5619 71.3448 17.808 76.1044 9.4175 78.4016C9.4175 78.4016 22.3667 84.4007 33.499 81.4425C33.499 81.4425 31.0214 85.822 26.2646 86.7805C26.2646 86.7805 45.4901 89.8214 56.0609 85.822C56.0774 85.8385 51.271 92.5979 46.9932 93.606Z"/><path fill="#FFDAC2" d="M197.642 115.487C203.176 122.726 209.518 130.675 213.928 135.17C213.928 135.17 211.071 150.226 207.652 157.464C204.216 164.703 190.127 181.858 190.127 181.858C190.127 181.858 185.271 182.353 179.54 179.61L181.621 196.269L183.009 197.822H193.381C194.521 197.822 195.594 197.26 196.238 196.335C199.245 192.021 208.296 179.246 216.488 170.107C226.481 158.968 235.053 140.674 234.623 138.244C234.194 135.815 234.194 132.245 222.335 115.091C219.379 110.827 216.125 106.249 212.788 101.704C208.626 108.744 202.73 112.992 197.642 115.487Z"/><path fill="#FFDAC2" d="M221.476 448.958H206.413C206.628 453.421 206.694 456.214 206.694 456.214C206.694 456.214 205.257 463.469 206.33 470.988C206.496 472.079 207.437 472.889 208.544 472.889H223.31C224.548 472.889 225.556 471.881 225.539 470.641C225.506 463.634 223.293 456.362 221.856 450.975C221.741 450.545 221.608 449.851 221.476 448.958Z"/><path fill="#FFDAC2" d="M86.7491 192.352L89.0284 190.236C91.2251 183.84 93.554 178.635 94.7928 176.04L94.7102 175.891C90.8618 175.528 85.147 174.007 81.4142 168.504C75.3195 159.546 71.3224 154.969 70.5627 150.589C69.8029 146.21 66.3674 137.451 64.468 135.732C64.468 135.732 75.1543 127.221 85.1139 119.09C77.285 113.95 73.0402 108.083 70.9095 104.265C60.1901 114.694 49.8671 125.37 45.7049 131.65C45.7049 131.65 40.4195 136.789 44.9947 144.375C49.5698 151.944 75.5507 182.667 80.704 190.534C80.6874 190.534 82.1079 192.021 86.7491 192.352Z"/><path fill="#FFDAC2" d="M86.8483 448.958H73.4202C73.255 451.074 73.0403 452.892 72.7925 454.363C70.9096 465.336 66.2519 462.89 64.3029 471.468C64.1377 472.195 64.6993 472.889 65.4591 472.889H86.6666C88.6652 472.889 90.2508 471.203 90.1021 469.22C89.9865 467.666 89.9369 465.981 90.1352 465.022C90.5646 462.874 90.7132 459.882 87.988 455.156C87.509 454.346 87.0961 452.165 86.8483 448.958Z"/><path fill="#E7515B" d="M183.769 136.41C182.695 138.707 181.704 140.872 181.357 142.013C178.632 151.052 180.531 165.464 182.001 172.851C183.835 173.826 185.569 174.305 186.89 174.537C190.029 170.62 193.811 165.695 196.767 161.481C192.308 151.813 187.947 143.533 183.769 136.41Z"/><path fill="#E7515B" d="M106.305 137.666C102.705 133.286 100.045 128.279 98.1129 123.602C94.3636 135.716 91.2419 150.656 89.5737 166.819C91.4071 168.108 93.4882 168.62 95.1068 168.785C101.598 158.721 106.933 142.31 106.305 137.666Z"/><path fill="#E7515B" d="M191.086 393.876C176.535 366.839 172.968 341.901 172.175 334.232C160.068 318.218 144.179 271.779 141.123 258.987C139.653 252.872 136.581 245.865 133.823 240.973C132.452 251.633 129.974 261.912 127.778 271.068C125.317 281.315 122.988 290.983 122.624 299.163C122.459 302.749 122.013 306.137 121.369 309.261C133.757 354.114 125.697 391.15 125.697 391.15C134.104 385.332 141.206 387.249 141.206 387.249C141.47 398.553 154.882 400.669 154.882 400.669C168.789 392.323 177.179 393.992 192.474 397.033C192.028 395.843 191.582 394.785 191.086 393.876Z"/><path fill="#E7515B" d="M378.121 306.401C367.914 297.526 356.666 289.808 344.361 284.52C338.233 281.859 331.825 279.81 325.268 278.603L320.164 277.645C318.446 277.331 316.745 276.918 315.044 276.554C313.343 276.174 311.658 275.711 309.957 275.282C308.272 274.835 306.587 274.34 304.919 273.877C291.54 269.894 278.624 264.391 266.617 257.334C260.654 253.748 254.906 249.798 249.472 245.468C246.747 243.303 244.104 241.055 241.561 238.692C239.034 236.312 236.606 233.833 234.31 231.238L234.293 231.222C234.112 231.024 234.128 230.71 234.343 230.528C234.541 230.346 234.855 230.363 235.036 230.561C239.76 235.519 244.98 240.014 250.463 244.146C255.947 248.277 261.711 252.029 267.69 255.4C279.648 262.16 292.465 267.382 305.695 271.084C312.318 272.935 319.041 274.373 325.829 275.513C332.651 276.719 339.29 278.769 345.649 281.479C358.384 286.9 369.929 294.799 380.335 303.823C386.908 309.491 393.052 315.639 398.866 322.085C408.248 317.969 417.464 318.3 417.464 318.3C408.793 315.408 409.057 310.929 409.057 310.929C444.288 292.783 462.423 321.969 462.423 321.969C464.058 315.309 463.794 308.384 463.15 303.228C461.96 300.468 460.623 297.774 459.153 295.179C455.701 288.982 451.489 283.247 446.55 278.174C441.645 273.084 436.079 268.654 429.984 264.986C423.972 261.201 417.382 258.309 410.659 255.813C397.099 251.021 382.68 248.492 368.079 247.054H368.046C367.782 247.021 367.584 246.79 367.6 246.509C367.633 246.245 367.848 246.063 368.112 246.063C382.796 246.476 397.545 248.492 411.568 253.07C415.053 254.26 418.521 255.532 421.858 257.069C423.559 257.78 425.178 258.656 426.846 259.466C428.464 260.358 430.1 261.201 431.669 262.176C433.271 263.102 434.79 264.143 436.326 265.151C437.829 266.225 439.332 267.283 440.769 268.44C443.66 270.72 446.418 273.183 448.978 275.843C454.099 281.148 458.508 287.148 462.043 293.609C462.373 294.204 462.671 294.799 462.985 295.411C475.603 297.939 487 303.823 487 303.823C458.608 218.596 382.895 214.646 359.243 219.472C338.151 223.769 254.444 238.51 211.913 186.948C207.437 192.814 203.655 198.169 202.119 200.367C200.137 203.226 196.866 204.928 193.398 204.928H185.833C186.741 211.126 188.641 216.513 189.07 217.67C198.336 236.725 200.17 281.446 200.467 290.75C206.76 303.459 210.129 317.755 211.17 322.646C220.072 334.43 222.781 345.056 223.062 368.193C223.161 375.994 223.937 385.811 224.978 395.512C230.148 393.413 233.187 391.132 233.187 391.132L236.077 400.635C247.903 399.842 245.541 386.174 264.469 382.753C283.398 379.332 284.19 394.057 284.19 394.057C288.534 393.809 292.597 392.471 296.363 390.372C294.282 381.712 291.755 373.184 288.485 364.954C284.818 355.534 280.309 346.461 274.726 338.132C269.177 329.786 262.57 322.151 254.89 315.771L248.944 310.847C246.978 309.144 244.98 307.442 243.08 305.674C239.232 302.154 235.515 298.485 232.014 294.618C228.512 290.75 225.143 286.767 222.021 282.586C218.9 278.405 215.96 274.092 213.267 269.63C210.641 265.134 208.197 260.523 206.083 255.78C203.968 251.037 202.119 246.178 200.946 241.055C200.88 240.791 201.045 240.526 201.326 240.46C201.59 240.394 201.838 240.559 201.92 240.807C202.581 243.237 203.473 245.666 204.431 248.029C205.389 250.409 206.446 252.739 207.569 255.037C209.815 259.647 212.375 264.093 215.117 268.44C220.65 277.083 227.075 285.148 234.112 292.618C241.164 300.088 248.878 306.88 256.971 313.243C264.965 319.787 271.803 327.687 277.534 336.248C283.265 344.842 287.89 354.129 291.573 363.764C294.679 371.879 297.14 380.225 299.072 388.686C309.874 381.282 317.868 367.417 322.328 354.592C328.637 336.446 346.244 334.86 346.244 334.86L352.025 342.495C352.025 342.495 374.636 348.015 385.405 332.761C388.296 328.662 391.962 325.72 395.761 323.622C390.195 317.556 384.348 311.756 378.121 306.401Z"/></g><defs><filter id="filter0_d_29_160" width="491" height="480.889" x="0" y="0" color-interpolation-filters="sRGB" filterUnits="userSpaceOnUse"><feFlood flood-opacity="0" result="BackgroundImageFix"/><feColorMatrix in="SourceAlpha" result="hardAlpha" type="matrix" values="0 0 0 0 0 0 0 0 0 0 0 0 0 0 0 0 0 0 127 0"/><feOffset dy="4"/><feGaussianBlur stdDeviation="2"/><feComposite in2="hardAlpha" operator="out"/><feColorMatrix type="matrix" values="0 0 0 0 0 0 0 0 0 0 0 0 0 0 0 0 0 0 0.25 0"/><feBlend in2="BackgroundImageFix" mode="normal" result="effect1_dropShadow_29_160"/><feBlend in="SourceGraphic" in2="effect1_dropShadow_29_160" mode="normal" result="shape"/></filter></defs></svg>