<svg width="62" height="59" viewBox="0 0 62 59" fill="none" xmlns="http://www.w3.org/2000/svg">
<path opacity="0.31" d="M61.0963 14.7598V58.8436H11.3862L4.68432 52.1199L10.8617 50.7167L11.0365 44.2269L3.16913 36.334V34.2292L1.94531 16.7476L5.38364 20.1387L10.5703 12.9473L10.8617 5.5805L17.039 1.31244L21.6429 5.9313L27.995 5.17124L28.5195 5.7559L33.6479 5.9313L36.5035 8.79617L37.2028 8.62077L38.5431 6.04824L42.098 9.6147L42.7391 4.23577L47.6926 3.76804L48.3919 2.0725L61.0963 14.7598Z" fill="url(#paint0_linear_35_674)"/>
<path d="M33.3882 28.0902H30.8823V49.8982H33.3882V28.0902Z" fill="#90A4AE"/>
<path d="M36.885 49.489H27.3276V51.5938H36.885V49.489Z" fill="#B6E7F2"/>
<path d="M43.7617 25.1669H20.5093V27.2717H43.7617V25.1669Z" fill="#B6E7F2"/>
<path d="M38.8084 27.2717H25.4048V29.0257H38.8084V27.2717Z" fill="#90A4AE"/>
<path d="M34.4958 19.7295H31.5819C31.2906 19.7295 31.1157 19.4956 31.1157 19.2618V18.3263C31.1157 18.034 31.3488 17.8586 31.5819 17.8586H34.4958V19.7295Z" fill="#225566"/>
<path d="M38.4584 23.1205H31.1738C30.9407 23.1205 30.7659 23.0621 30.591 22.8867L24.9965 17.917C24.8216 17.7416 24.7051 17.5077 24.7051 17.2154L24.8216 13.1812C24.8216 12.8304 25.0547 12.5381 25.3461 12.3627L30.2997 10.024C30.7659 9.79013 31.2904 10.024 31.5235 10.4333C31.7566 10.901 31.5235 11.4272 31.1155 11.6611L26.6282 13.7659L26.4534 16.8646L31.4652 21.3081H37.5843V20.548L33.0387 20.0803C32.5142 20.0218 32.1645 19.5541 32.2228 19.0863C32.2811 18.6186 32.7473 18.2093 33.2135 18.2678L38.575 18.8525C39.0412 18.9109 39.3908 19.2617 39.3908 19.7295V22.2435C39.3908 22.7113 38.9829 23.1205 38.4584 23.1205Z" fill="#B6E7F2"/>
<path d="M23.5978 5.87286H17.8867V8.56233H23.5978V5.87286Z" fill="#225566"/>
<path d="M23.4811 5.11285C22.7818 5.11285 22.2573 5.63905 22.2573 6.34065V9.03011C22.2573 9.73171 22.8401 10.2579 23.4811 10.2579H28.085V5.11285H23.4811Z" fill="#B6E7F2"/>
<path d="M28.0854 6.63297V9.7317C28.0854 10.3164 28.5517 10.7256 29.0762 10.7256H33.039C33.6217 10.7256 34.0297 10.2579 34.0297 9.7317V6.63297C34.0297 6.04831 33.5635 5.63904 33.039 5.63904H29.0762C28.5517 5.58057 28.0854 6.04831 28.0854 6.63297Z" fill="#B6E7F2"/>
<path d="M33.0386 8.09464C33.0386 9.08857 32.2227 9.84864 31.2903 9.84864C30.2996 9.84864 29.542 9.03011 29.542 8.09464C29.542 7.1007 30.3579 6.34064 31.2903 6.34064C32.2227 6.34064 33.0386 7.1007 33.0386 8.09464Z" fill="#286272"/>
<path d="M32.864 8.50389H29.5422C29.3091 8.50389 29.1343 8.32849 29.1343 8.09462V7.97769C29.1343 7.74382 29.3091 7.56842 29.5422 7.56842H32.864C33.0971 7.56842 33.2719 7.74382 33.2719 7.97769V8.09462C33.2137 8.32849 33.0388 8.50389 32.864 8.50389Z" fill="#225566"/>
<path d="M38.8662 7.50995H36.5352V17.2154H38.8662V7.50995Z" fill="#225566"/>
<path d="M39.3325 20.4896H31.6982L32.8055 16.8062H39.3325V20.4896Z" fill="#B6E7F2"/>
<path d="M39.3911 13.0643H35.0786V20.3141H39.3911V13.0643Z" fill="#B6E7F2"/>
<path d="M37.7593 23.1205H33.272V25.1669H37.7593V23.1205Z" fill="#B6E7F2"/>
<path d="M30.5913 25.1669H26.4536V24.8746C26.4536 24.4653 26.8033 24.056 27.2695 24.056H29.8337C30.2416 24.056 30.6495 24.4068 30.6495 24.8746V25.1669H30.5913Z" fill="#225566"/>
<path d="M31.4073 24.2314C31.1742 24.2314 31.0576 24.4068 31.0576 24.5822V25.1669H31.8152V24.5822C31.7569 24.4068 31.5821 24.2314 31.4073 24.2314Z" fill="#225566"/>
<path d="M32.6309 24.2314C32.3978 24.2314 32.2812 24.4068 32.2812 24.5822V25.1669H33.0389V24.5822C32.9806 24.4068 32.8058 24.2314 32.6309 24.2314Z" fill="#225566"/>
<path d="M38.6916 7.50994H37.4678L37.9923 6.28214L38.6916 5.93134V7.50994Z" fill="#225566"/>
<path d="M10.4127 51.3012H12.2192L12.2192 35.7491H10.4127L10.4127 51.3012Z" fill="#536168"/>
<path d="M4.71582 52.12H17.9447C17.9447 51.1845 17.1871 50.4829 16.3129 50.4829H6.34757C5.41514 50.4829 4.71582 51.243 4.71582 52.12Z" fill="#536168"/>
<path d="M23.9477 31.2474L23.6563 30.7797C24.0642 30.8381 24.5304 30.8966 24.9384 30.8381C25.1715 30.8381 25.4046 30.7797 25.5794 30.9551C25.696 31.072 25.7543 31.3059 25.696 31.5397C25.6377 32.826 25.1132 43.6423 25.1132 44.5193C25.1132 45.6887 25.4046 46.7411 25.5794 47.8519C25.696 48.9043 25.8708 50.0737 26.2205 51.1261C26.2787 51.3015 26.4536 51.5353 26.5701 51.7107C26.6867 51.8277 26.8032 51.9446 26.8615 52.0615C26.745 52.12 26.6867 52.2369 26.5701 52.2369C26.4536 52.2954 26.337 52.2954 26.2205 52.3539L25.288 52.12C24.8801 51.8861 24.7053 51.5353 24.5887 51.1261C24.4722 50.7168 24.5304 50.2491 24.3556 49.8398C24.1808 49.3721 23.7728 49.0213 23.4815 48.612C23.3066 48.3781 23.1318 48.0858 22.8987 47.9104C22.7239 47.735 22.549 47.6181 22.3742 47.4427C22.1411 47.2088 22.2576 47.0919 22.3742 46.7411C22.4907 46.5072 22.549 46.2149 22.6073 45.9225C22.6656 45.5717 22.7239 44.9871 22.6656 44.5778C22.6073 43.8762 22.4907 43.2331 22.2576 42.5899C21.6749 41.1283 21.3252 39.3158 21.4418 37.7372C21.5 37.0356 21.6749 36.3925 21.7914 35.6909C21.9663 35.0477 22.2576 34.2877 22.2576 33.5861C22.2576 33.1183 22.0828 32.6506 22.0245 32.1829C21.9663 31.8321 21.9663 31.4228 21.908 31.072L23.9477 31.2474Z" fill="#F0B784"/>
<path d="M21.9079 46.9749C21.9662 46.858 22.3741 46.3318 22.3158 46.2148C23.0152 47.9104 24.5886 49.2551 24.88 51.0676C24.9383 51.4768 25.2297 51.7692 25.6376 51.8276C25.7542 51.8276 26.5701 51.7107 26.5118 51.6522C26.6283 51.7692 26.7449 51.9446 26.8614 52.0615C27.0363 52.2954 27.5608 52.5877 27.619 52.9385C27.6773 53.4647 26.2204 52.88 25.9873 52.8216C25.7542 52.7046 25.4628 52.6462 25.2297 52.5292C24.8217 52.3538 24.4138 52.12 24.0059 51.8861L23.9476 51.8276C23.9476 51.8276 23.9476 51.7692 23.9476 51.7107C23.8893 51.0676 24.0641 50.366 23.9476 49.6644C23.8893 49.372 23.5979 48.6704 23.3065 48.5535C23.19 48.495 23.0734 48.5535 22.9569 48.6704C22.8986 48.7289 22.8403 48.7874 22.8403 48.8458C22.7238 49.0212 22.6655 49.2551 22.6072 49.489C22.4907 49.8982 22.4324 50.366 22.3741 50.7752C22.3741 50.9506 22.3741 51.243 22.3158 51.4184L21.9662 51.3599C22.0827 50.4244 22.2576 49.5474 21.9662 48.5535C21.6748 48.0858 21.7331 47.5011 21.9079 46.9749Z" fill="#D1D3D4"/>
<path d="M24.064 31.1889C24.1805 31.1889 24.3553 31.1305 24.5302 31.1305C25.6374 30.8966 25.9871 31.6567 25.5792 32.5337C25.0547 33.5861 24.6467 34.6385 24.0057 35.5739C23.1898 36.6848 22.3157 37.7372 21.5581 38.9065C20.5091 40.5436 19.3435 42.1222 18.3528 43.8177C17.7701 44.8117 17.4787 45.864 17.0125 46.9165C16.6045 47.9104 16.1383 48.9628 15.9052 50.0152C15.8469 50.1906 15.9052 50.4244 15.9635 50.7168C16.0218 50.8922 16.0218 51.0676 16.08 51.1845C15.9635 51.1845 15.8469 51.1845 15.7304 51.1845C15.6138 51.1845 15.4973 51.126 15.3807 51.0676L14.6814 50.4244C14.4483 50.0152 14.4483 49.6059 14.5648 49.1966C14.6814 48.7874 14.9728 48.3781 15.0311 47.9689C15.0893 47.4427 14.9728 46.9749 14.9145 46.4487C14.9145 46.1564 14.8562 45.8056 14.7979 45.5132C14.7397 45.2794 14.6231 45.0455 14.5648 44.8701C14.4483 44.5193 14.6231 44.4609 14.9145 44.2855C15.1476 44.1101 15.3224 43.9347 15.5555 43.7008C15.7887 43.4085 16.1383 42.9407 16.3131 42.5899C16.6045 41.9468 16.8376 41.3621 16.9542 40.6605C17.1873 39.0819 17.8283 37.3864 18.7608 36.1001C19.1687 35.5155 19.6349 35.0477 20.1011 34.58C20.5673 34.1123 21.2084 33.5861 21.5581 33.0599C21.7912 32.6506 21.9077 32.1829 22.0825 31.7736C22.2574 31.4228 22.3739 31.072 22.5488 30.7212C23.015 31.072 23.4229 31.3059 24.064 31.1889Z" fill="#FFC28E"/>
<path d="M14.3316 44.2854C14.4481 44.1685 15.0892 43.9346 15.0892 43.8177C14.9726 44.7532 15.264 45.5717 15.264 46.5072C15.264 47.0334 15.2057 47.618 15.0892 48.1442C15.0309 48.4365 14.9726 48.7289 14.9143 49.0212C14.8561 49.1966 14.6812 49.6059 14.6812 49.7228C14.7395 50.0151 14.8561 50.3075 15.1474 50.4829C15.3805 50.6583 15.6136 50.5998 15.8468 50.7167C16.0799 50.8337 16.6626 52.003 16.1964 52.0615C16.0216 52.0615 15.7302 51.8276 15.5554 51.7107C15.2057 51.4768 14.9143 51.2429 14.6229 50.9506C14.3898 50.7167 13.9236 50.4244 13.8653 50.0736C13.7488 49.4889 13.9819 48.9627 14.1567 48.4365C14.3316 48.0273 14.4481 47.618 14.5064 47.1503C14.5064 46.9164 14.5064 46.5071 14.3316 46.3317C13.8653 45.9225 12.5833 48.2027 12.2919 48.6119C12.1753 48.5535 12.0588 48.4365 12.0005 48.3781C12.5833 47.5011 13.2826 46.5656 13.5157 45.5132C13.574 45.1039 13.9236 44.6362 14.3316 44.2854Z" fill="#D4E4EF"/>
<path d="M5.29908 26.0439C5.35735 25.9269 5.41563 25.81 5.47391 25.81C5.47391 25.81 5.76529 25.81 6.17323 25.8685C8.15464 26.0439 13.5161 26.5116 13.5161 26.5116L24.0059 29.0257C24.239 29.2011 24.5304 29.4349 24.7635 29.7273C25.4628 30.5458 26.0456 31.5397 26.1622 32.0659C25.9873 32.2413 25.4629 32.2413 25.288 32.4167C24.9966 32.6506 24.647 32.8845 24.4139 33.0599C24.0642 33.2937 23.7145 33.5276 23.4232 33.7615C17.0127 32.2413 10.8354 30.0781 4.71631 28.1487C4.83286 27.3301 5.12425 26.4531 5.29908 26.0439Z" fill="#B2CCDB"/>
<path d="M4.65784 28.0901C10.7769 30.0196 17.0125 32.1828 23.3647 33.703C23.015 33.9368 22.7236 34.1707 22.374 34.4046C21.2667 35.1646 20.276 35.9832 18.8774 35.9247C20.5674 33.703 14.9146 33.9368 14.0404 33.9953C12.059 33.9953 10.0776 34.1707 8.09617 34.1707C7.57168 34.1707 5.9982 34.463 5.53199 34.1707C5.18233 33.9368 4.89094 33.6445 4.65784 33.1768C4.13334 32.0074 4.13334 30.4288 4.30818 29.201C4.42473 29.0256 4.54128 28.6163 4.65784 28.0901Z" fill="#B7D1DD"/>
<path d="M24.2969 22.7698L26.22 22.3605L27.9101 22.0682C28.0849 22.0097 28.2597 22.0682 28.3763 22.1266C28.9591 22.3605 29.5418 22.4774 30.0663 22.7698C30.416 22.9452 30.5908 23.1206 30.1246 23.3544C29.8332 23.5298 29.5418 23.5298 29.2504 23.296C29.367 23.3544 29.4835 23.4714 29.4835 23.5883C29.4835 23.8806 29.1922 23.7637 29.0173 23.7637C28.6677 23.7052 28.318 23.6468 27.9683 23.5883C27.7352 23.5298 27.5604 23.5883 27.3273 23.7052L25.9287 24.4653C25.7538 24.5822 25.579 24.5822 25.4042 24.5822L24.1221 24.5237L24.2969 22.7698Z" fill="#FFC28E"/>
<path d="M12.758 11.0179C13.0494 11.0179 13.3991 11.0179 13.6904 11.1349C15.4387 11.7195 15.2639 13.4151 15.5553 14.9352C15.8467 16.2215 16.3129 17.4493 16.4877 18.7355C16.546 19.2617 16.546 19.7295 16.7208 20.1972C16.9539 20.9573 17.4784 21.0157 18.1778 21.3081C19.9843 22.1266 24.9379 22.4774 25.0544 22.5359L24.4716 24.8161C24.3551 24.7576 15.2639 25.9269 13.7487 23.6467C13.3991 23.1205 13.1659 22.4774 12.9328 21.9512C12.117 20.1972 11.068 18.5017 10.8932 16.5138C10.7766 14.8183 9.96072 12.4796 11.7673 11.3103C12.0004 11.1349 12.3501 11.0179 12.758 11.0179Z" fill="#BFDBEF"/>
<path d="M11.5928 5.75592C12.059 6.39905 12.4087 6.92525 12.7583 7.33452C13.9821 8.97158 14.5066 9.32238 14.5066 9.32238C14.5066 9.38085 13.5742 10.4332 13.749 12.1872C12.3504 10.3748 11.5928 8.09459 11.5928 5.75592Z" fill="#E2A97A"/>
<path d="M8.79542 10.7257C9.02853 10.5503 9.26164 10.3749 9.43647 10.1995C9.90268 9.8487 10.2523 9.38097 10.5437 8.85477C11.0682 7.86083 11.4179 6.80844 11.5344 5.69757C11.5344 8.03623 12.292 10.3164 13.6907 12.1289C13.6907 12.1874 13.6907 12.3043 13.6907 12.3628C14.0986 13.4736 14.4483 14.2922 13.6907 14.643C13.0496 14.9353 11.0682 13.766 10.3106 13.3567C10.1358 13.2398 10.0192 13.1813 10.0192 13.1813C9.90268 13.1228 9.78613 12.4797 9.72785 12.3043C9.66957 12.0704 9.55302 11.7781 9.43647 11.6027C9.31991 11.4273 9.20336 11.3688 9.02853 11.3104C8.8537 11.2519 8.44576 11.2519 8.32921 11.135C8.21265 11.018 8.62059 10.8426 8.79542 10.7257Z" fill="#F0B784"/>
<path d="M16.3129 8.62086C16.4294 8.67932 16.4294 8.85472 16.3711 8.97166C16.3129 9.08859 16.1963 9.20552 16.138 9.32246C16.0797 9.43939 16.0797 9.61479 16.0215 9.79019C15.9049 10.0825 15.5553 10.2579 15.2639 10.2579C14.9142 10.2579 14.6228 10.141 14.3314 9.96559C13.2242 9.38092 12.1752 8.56239 11.6507 7.45152C11.1845 6.39912 11.1845 5.22979 11.2428 4.11892C11.3011 3.41732 11.3593 2.71572 11.5924 2.07259C11.6507 1.89719 11.7673 1.72179 11.8838 1.54639C12.9911 0.0262589 14.9142 0.143192 16.3711 1.02019C17.7698 1.83873 18.4108 3.70966 17.8281 5.22979C17.7698 5.40519 17.6532 5.58059 17.5949 5.75599C17.4784 6.16526 17.6532 6.57452 17.7698 6.92532C17.828 7.15919 18.0612 7.86079 17.7115 7.97772C17.5367 8.03619 17.3618 7.91926 17.1287 8.03619C16.9539 8.15312 16.8373 8.38699 16.8373 8.56239C16.8373 8.62086 16.8373 8.62086 16.7791 8.67932C16.6625 8.62086 16.3711 8.62086 16.3129 8.62086Z" fill="#FFC28E"/>
<path d="M14.7977 17.5662C13.0494 16.163 12.1753 14.4675 11.3594 12.5381C11.3594 12.4796 11.3594 12.4211 11.3594 12.3627C13.1077 12.9473 14.1567 12.7135 14.6229 12.4796C14.7977 14.2336 15.1474 15.8122 14.7977 17.5662Z" fill="white"/>
<path d="M14.9727 17.6831C15.3224 15.9291 14.7979 14.2336 14.6231 12.4796C14.8562 12.3627 14.9727 12.2457 14.9727 12.2457L16.1965 17.7416L15.0893 21.2496L11.884 20.1972C11.884 20.1972 11.5344 17.8001 11.3013 12.5381C12.1754 14.4675 13.1661 16.2799 14.9727 17.6831Z" fill="#C5D3DB"/>
<path d="M13.5158 26.5116C13.5158 26.5116 11.0099 26.3362 5.99805 25.8685C9.49466 25.1084 12.9913 23.179 15.7303 20.8988C14.7978 23.3544 13.5158 26.5116 13.5158 26.5116Z" fill="#B2CCDB"/>
<path d="M16.4878 17.2154C16.313 16.5723 16.0799 15.9291 15.905 15.3445C15.6719 14.6429 15.4971 13.9413 15.264 13.2397C15.1474 12.8889 15.0309 12.5381 14.9143 12.1873C14.8561 12.2457 14.7978 12.2457 14.7395 12.2457C14.7978 12.5381 14.8561 12.8889 14.9143 13.1812C15.0309 13.8828 15.0892 14.5844 15.0892 15.3445C15.0892 15.7537 15.0892 16.1045 15.0892 16.5138C15.0892 16.6892 14.7395 17.5077 14.7395 17.7416C14.7395 17.6247 14.1567 17.0985 14.0985 16.9815C13.6322 16.3969 13.166 15.8122 12.6998 15.286C11.8839 14.2336 11.1263 13.1227 10.3687 12.0119C9.96081 11.4272 9.61115 10.8425 9.37804 10.2579C7.51318 11.5441 6.23109 13.0058 5.76487 15.286C5.47349 16.7477 5.47349 18.2678 5.47349 19.7879C5.47349 21.3665 5.53177 22.9451 5.53177 24.5237C5.53177 24.933 5.35694 25.5177 5.41521 25.8685C5.47349 26.3362 5.7066 25.9269 6.11454 25.9854C9.61115 25.2253 13.1078 23.2959 15.8468 21.0157C16.3713 19.6125 16.8375 18.4432 16.8375 18.2678C16.7209 17.8585 16.6044 17.5077 16.4878 17.2154Z" fill="#B2CCDB"/>
<path d="M8.73722 5.40515C8.73722 4.93742 8.91205 4.46969 9.02861 4.00195C9.43655 2.83262 10.2524 1.60482 11.3014 0.844756C12.4087 0.0846896 13.8656 -0.207644 15.206 0.201623C15.9636 0.435489 16.6629 0.844755 17.2456 1.48789C18.2946 2.59875 18.4112 3.82655 18.0032 5.22975C17.5953 5.17128 17.1874 5.11282 16.7794 5.05435C16.896 4.70355 16.896 4.35275 16.8377 4.00195C16.6629 4.35275 16.488 4.76202 16.3715 5.17129C15.9636 5.11282 15.4973 5.17128 15.0894 5.28822C15.0894 5.28822 14.9728 4.52815 14.798 4.52815C14.5649 4.52815 14.157 5.17128 14.0404 5.28822C13.5742 5.87288 13.2828 6.63295 13.0497 7.33455C12.7583 8.44541 12.5835 9.73168 12.5835 10.7256C12.1173 10.4917 8.62067 8.32848 8.73722 5.40515Z" fill="#393B42"/>
<path d="M19.4603 35.1647C19.4603 35.8078 18.9358 36.3925 18.2365 36.3925H3.7256C3.08455 36.3925 2.56006 35.8663 2.56006 35.2231V35.1647H19.4603Z" fill="#6B8389"/>
<path d="M3.60887 34.1122H18.4112C18.994 34.1122 19.4602 34.58 19.4602 35.1646H2.61816C2.61816 34.58 3.08438 34.1122 3.60887 34.1122Z" fill="#9AA4AF"/>
<path d="M3.43396 21.4835L4.48294 33.7615C4.54122 34.1707 4.19156 34.5215 3.78362 34.4046C3.02602 34.2877 2.38498 33.6445 2.3267 32.8845L0.811502 21.7758C0.461841 19.3202 0.578395 17.917 0.811502 16.9231C0.869779 16.7477 1.04461 16.6307 1.21944 16.5723C1.80221 16.5138 2.38498 16.9231 2.55981 17.4493C2.85119 18.3263 3.25913 19.6125 3.43396 21.4835Z" fill="#9AA4AF"/>
<path d="M13.8071 11.1348L14.7396 17.5662L15.672 15.0521L14.7978 13.3566V11.9534L13.8071 11.1348Z" fill="#E9F0F4"/>
<path d="M14.7397 17.5662C13.9238 15.8122 12.8165 13.8244 11.243 11.9534C10.9517 11.6026 9.84439 9.79018 10.2523 9.26398C9.61129 9.90711 8.79541 10.2579 8.79541 10.2579L10.0192 12.5966L11.9424 13.7659L11.5927 14.7014L14.7397 17.5662Z" fill="#E9F0F4"/>
<path d="M56.1163 51.6522L54.6011 36.334L53.4355 36.5679L55.009 51.6522H56.1163Z" fill="#5D6C75"/>
<path d="M41.2557 51.6522L42.7709 36.5679L41.6636 36.334L40.1484 51.6522H41.2557Z" fill="#5D6C75"/>
<path d="M56.4661 51.8277C56.4661 51.7692 56.4661 51.7692 56.4661 51.7107C56.4661 51.1845 56.233 50.7168 55.9999 50.7168H55.0092C54.7761 50.7168 54.543 51.1845 54.543 51.7107C54.543 51.7692 54.543 51.7692 54.543 51.8277H56.4661Z" fill="#536168"/>
<path d="M41.6053 51.8277C41.6053 51.7692 41.6053 51.7692 41.6053 51.7107C41.6053 51.1845 41.3722 50.7168 41.139 50.7168H40.1483C39.9152 50.7168 39.6821 51.1845 39.6821 51.7107C39.6821 51.7692 39.6821 51.7692 39.6821 51.8277H41.6053Z" fill="#536168"/>
<path d="M40.2065 35.6908C40.2065 36.3339 40.731 36.8017 41.3138 36.8017H54.8923C55.4751 36.8017 55.9995 36.3339 55.9995 35.6908V35.6323H40.2065V35.6908Z" fill="#6B8389"/>
<path d="M55.0671 34.6969H41.1972C40.6728 34.6969 40.2065 35.1062 40.2065 35.6908H55.9995C56.0578 35.1646 55.5916 34.6969 55.0671 34.6969Z" fill="#9AA4AF"/>
<path d="M55.2422 22.8866L54.2515 34.4046C54.1932 34.7554 54.5429 35.1062 54.9508 35.0477C55.6501 34.9308 56.2329 34.3461 56.3495 33.586L57.7481 23.179C58.0395 20.8988 57.9812 19.554 57.7481 18.6186C57.6898 18.4432 57.5733 18.3262 57.3985 18.3262C56.874 18.2678 56.2912 18.6186 56.1164 19.1448C55.7667 19.9048 55.417 21.1326 55.2422 22.8866Z" fill="#9AA4AF"/>
<path d="M38.7496 47.2088C38.633 47.2673 38.7496 48.2028 38.7496 48.2028L41.7217 47.852L41.4886 46.7411L38.7496 47.2088Z" fill="#95A5A6"/>
<path d="M42.0131 48.2612L41.8383 47.618L38.5748 47.9104C38.5748 47.9104 38.2251 49.0212 37.1179 49.4305C36.0689 49.7813 34.7285 50.9506 32.6306 50.7168C32.514 50.7168 32.3975 50.8337 32.3975 50.9506L32.514 51.4184L40.0317 51.0676C40.2066 49.8398 40.9059 48.7289 42.0131 48.2612Z" fill="#E67E22"/>
<path d="M39.9736 51.0091L42.363 50.8922C42.4213 50.4829 42.4795 49.8982 42.4795 49.8982L42.0133 48.2027C40.9061 48.7289 40.2067 49.8398 39.9736 51.0091Z" fill="#F19B2C"/>
<path d="M42.3626 50.8922L32.4556 51.3599L32.5138 51.6523L39.5071 51.3015L39.7402 51.0676L39.9733 51.3599C39.9733 51.3599 42.3626 51.3599 42.3043 51.243C42.3626 51.3015 42.3626 51.1261 42.3626 50.8922Z" fill="#7D4C2E"/>
<path d="M36.6518 50.4246C36.5935 50.4246 36.477 50.3661 36.477 50.2492C36.477 50.1322 36.4187 50.0153 36.3022 49.9568C36.1856 49.8984 36.1273 49.8399 36.0108 49.8399C35.8942 49.8399 35.8359 49.7814 35.8359 49.6645C35.8359 49.5475 35.8942 49.4891 36.0108 49.4891C36.1856 49.4891 36.4187 49.5475 36.5353 49.6645C36.7101 49.7814 36.7684 50.0153 36.8266 50.1907C36.8266 50.3661 36.7101 50.4246 36.6518 50.4246Z" fill="#7D4C2E"/>
<path d="M37.7591 50.1906C37.7008 50.1906 37.6425 50.1322 37.5842 50.0737C37.526 49.7814 37.2346 49.489 36.9432 49.3721C36.8849 49.3721 36.8267 49.2552 36.8267 49.1382C36.8267 49.0798 36.9432 49.0213 37.0598 49.0213C37.4677 49.1382 37.8174 49.489 37.9339 49.9568C37.9339 50.0737 37.8756 50.1906 37.7591 50.1906Z" fill="#7D4C2E"/>
<path d="M38.5749 49.606C38.5166 49.606 38.4583 49.5475 38.4 49.4891C38.2835 49.1967 37.9921 48.9629 37.7007 48.9629C37.5842 48.9629 37.5259 48.8459 37.5259 48.7875C37.5259 48.6705 37.6424 48.6121 37.7007 48.6121C38.1669 48.6705 38.5166 48.9629 38.6914 49.3721C38.808 49.4891 38.7497 49.606 38.5749 49.606C38.6331 49.606 38.6331 49.606 38.5749 49.606Z" fill="#7D4C2E"/>
<path d="M39.3326 47.735C39.216 47.7935 39.3326 48.7289 39.3326 48.7289L42.3047 48.3781L42.0716 47.2673L39.3326 47.735Z" fill="#95A5A6"/>
<path d="M42.6543 48.7289L42.4794 48.0858L39.2159 48.3781C39.2159 48.3781 38.8663 49.489 37.759 49.8983C36.71 50.2491 35.3696 51.4184 33.2717 51.1846C33.1551 51.1846 33.0386 51.3015 33.0386 51.4184L33.1551 51.8862L40.6728 51.5354C40.7894 50.366 41.4887 49.1967 42.6543 48.7289Z" fill="#E67E22"/>
<path d="M40.6147 51.4769L43.0041 51.3599C43.0624 50.9507 43.1206 50.366 43.1206 50.366L42.6544 48.6705C41.4889 49.1967 40.7896 50.366 40.6147 51.4769Z" fill="#F19B2C"/>
<path d="M43.0037 51.3599L33.0967 51.8277L33.155 52.12L40.1482 51.7692L40.3813 51.5353L40.6144 51.8277C40.6144 51.8277 43.0038 51.8277 42.9455 51.7107C42.9455 51.7692 42.9455 51.5938 43.0037 51.3599Z" fill="#7D4C2E"/>
<path d="M37.2343 50.9507C37.176 50.9507 37.0595 50.8922 37.0595 50.7753C37.0595 50.6583 37.0012 50.5414 36.8847 50.4829C36.7681 50.4245 36.7098 50.366 36.5933 50.366C36.4767 50.366 36.4185 50.3075 36.4185 50.1906C36.4185 50.0737 36.4767 50.0152 36.5933 50.0152C36.7681 50.0152 37.0012 50.0737 37.1178 50.1906C37.2926 50.3075 37.3509 50.5414 37.4091 50.7168C37.4091 50.8337 37.3509 50.8922 37.2343 50.9507Z" fill="#7D4C2E"/>
<path d="M38.3416 50.6583C38.2833 50.6583 38.225 50.5999 38.1668 50.5414C38.1085 50.2491 37.8171 49.9567 37.5257 49.8398C37.4675 49.8398 37.4092 49.7229 37.4092 49.6059C37.4092 49.5475 37.5257 49.489 37.6423 49.489C38.0502 49.6059 38.3999 49.9567 38.5164 50.4245C38.5164 50.5414 38.4582 50.6583 38.3416 50.6583Z" fill="#7D4C2E"/>
<path d="M39.216 50.1321C39.1577 50.1321 39.0994 50.0737 39.0411 50.0152C38.9246 49.7229 38.6332 49.489 38.3418 49.489C38.2253 49.489 38.167 49.372 38.167 49.3136C38.167 49.1966 38.2835 49.1382 38.3418 49.1382C38.808 49.1967 39.1577 49.489 39.3325 49.8982C39.3908 49.9567 39.3325 50.0737 39.216 50.1321Z" fill="#7D4C2E"/>
<path d="M44.4607 19.8464C44.2276 19.671 43.9945 19.4956 43.8197 19.3202C43.4117 19.0279 42.8872 18.8525 42.421 18.5601C42.3045 18.4432 41.8965 18.0924 41.7217 18.1509C41.6634 18.1509 41.6634 18.2093 41.6634 18.2678C41.4303 18.8525 42.1879 19.1448 42.5376 19.3787C42.6541 19.4956 42.829 19.6125 42.9455 19.7295C42.4793 19.671 41.9548 19.6125 41.4886 19.5541C41.2555 19.5541 40.9641 19.4371 40.8476 19.7295C40.6145 20.2557 41.5469 20.1972 41.78 20.2557C41.5469 20.2557 40.7893 20.0218 40.6727 20.2557C40.6145 20.3726 40.6727 20.7819 40.8476 20.7819C40.6145 20.7819 40.7893 21.3665 40.9058 21.425C41.0224 21.4835 41.3721 21.425 41.5469 21.425C41.3721 21.4835 41.1389 21.425 41.0224 21.6004C40.9058 21.7758 41.0224 22.0097 41.1972 22.0681C41.4886 22.1851 41.78 22.1851 42.0714 22.2435C42.3628 22.302 42.829 22.302 43.1204 22.302C43.47 22.302 43.7614 22.302 44.1111 22.302C44.5773 22.302 44.9269 22.1851 45.3931 22.0681L44.8687 20.0803C44.7521 20.0218 44.519 19.9049 44.4607 19.8464Z" fill="#FFC28E"/>
<path d="M48.1907 8.73778C47.7827 8.03618 48.3655 7.97771 48.7734 7.45151C49.939 5.93138 49.4145 3.82658 47.7827 3.00805C46.3841 2.24798 44.3444 1.89718 42.9457 2.71572C42.9457 2.89112 43.004 3.00805 42.9457 3.24192C42.9457 3.30038 42.9457 3.35885 42.9457 3.41732L42.5378 3.47578C42.363 3.53425 42.2464 3.65118 42.1881 3.76812L41.6637 5.22978C41.6054 5.34671 41.6054 5.40518 41.6637 5.52211L41.8968 6.39911C41.955 6.51605 41.8968 6.69145 41.8385 6.80838L41.3723 7.45151C41.1974 7.68538 41.2557 8.03618 41.5471 8.15311C41.7802 8.27004 41.7802 8.56238 41.7802 8.79624C41.7802 8.85471 41.8385 8.97164 41.8968 9.03011C41.955 9.08858 42.0716 9.14704 42.0133 9.14704C41.8968 9.32244 41.8968 9.43938 42.0716 9.61478C42.3047 9.84864 42.1299 10.2579 42.2464 10.5502C42.3047 10.6672 42.4212 10.7841 42.5378 10.7841C42.6544 10.7841 43.1788 10.7841 43.3537 10.7841C43.7033 10.7841 44.1113 10.6672 44.4609 10.5502C45.0437 10.8426 45.2768 11.2518 45.4516 11.8365C45.5099 12.0119 45.9761 12.8304 46.0927 12.9474C46.3841 13.2397 46.6172 12.8889 46.9086 12.7135C47.4913 12.3042 48.1324 11.6611 48.5403 11.0764C48.8317 10.6672 49.1231 10.5502 48.89 10.0825C48.89 9.90711 48.2489 8.79624 48.1907 8.73778Z" fill="#FFC28E"/>
<path d="M48.2491 8.50391C47.9577 8.21158 47.5498 7.86078 47.4332 7.50998C47.3167 7.10071 47.5498 6.57451 47.4915 6.10678C47.375 5.69751 47.1419 5.28824 46.7339 5.22978C46.5008 5.17131 46.2094 5.28825 46.0346 5.46365C45.8015 5.69751 46.1511 6.69144 45.9763 6.80838C45.8015 6.86684 45.6267 6.98378 45.5101 6.86684C45.4518 6.80838 45.4518 6.74991 45.3935 6.74991C45.277 6.51604 45.1604 6.16524 44.9856 5.93138C44.8691 5.81445 44.5777 5.75598 44.5194 5.52211C44.5194 5.11284 44.5194 4.70358 44.3446 4.29431C44.1697 3.94351 43.8201 3.59271 43.4704 3.59271C43.0042 3.59271 42.538 3.82658 42.0718 3.65118C42.1301 3.35885 42.3632 3.00805 42.5963 2.77418C43.4121 2.13105 44.3446 1.66331 45.3353 1.54638C45.8598 1.48791 46.326 1.48791 46.8505 1.66331C47.0836 1.72178 47.3167 1.83871 47.5498 1.95565C47.7829 2.07258 47.9577 2.30645 48.1908 2.36491C48.2491 2.30645 48.3074 2.18951 48.3074 2.07258C48.3657 2.07258 48.3657 2.07258 48.4239 2.13105C48.5405 2.30645 48.7153 2.42338 48.657 2.65725C48.657 2.65725 49.065 2.83265 49.1233 2.89111C49.2398 3.00805 49.4146 3.06651 49.5312 3.18345C49.3564 3.18345 49.2398 3.30038 49.065 3.30038C49.8809 3.24191 49.8809 5.17131 49.8226 5.58058C49.6478 6.69144 49.1815 7.74384 48.5405 8.67931C48.4822 8.73778 48.4822 8.79624 48.3657 8.79624C48.3657 8.56238 48.3657 8.56238 48.2491 8.50391C48.3074 8.50391 48.3074 8.50391 48.2491 8.50391Z" fill="#393B42"/>
<path d="M45.3349 11.3688C45.2766 11.7196 45.1601 11.9535 45.1018 12.6551C44.8104 15.2276 44.8687 17.0985 44.927 17.6247C44.9853 18.2678 45.0435 19.1448 45.2184 20.1388C46.617 17.4493 48.0157 15.9292 48.6567 14.5844C49.5309 12.8304 50.1136 11.4273 50.1136 11.018C50.1136 10.6087 49.9388 10.141 49.4726 9.79019C48.2488 8.91319 46.2091 11.1934 46.2091 11.1934L45.3349 11.3688Z" fill="#BCBEC0"/>
<path d="M48.4819 8.62085L45.335 11.3688L46.2674 12.4797L49.7057 9.90712L48.4819 8.62085Z" fill="#E6E7E8"/>
<path d="M45.1017 16.046C45.8011 13.8243 47.0249 12.2457 47.899 11.2518L49.7056 9.90704L51.5705 11.6026L53.2605 13.9412C53.9598 15.5783 54.4843 18.3847 54.6591 20.1387C54.7757 21.4834 55.475 26.7454 55.3002 28.0902C52.2115 28.2656 49.3559 26.8039 46.3255 27.2132C45.2183 20.8403 44.2276 18.8524 45.1017 16.046Z" fill="#0F2E4F"/>
<path d="M49.123 9.26398C49.123 9.26398 45.743 13.2982 44.8105 16.9231C46.9668 13.8828 48.0158 13.7074 48.0158 13.7074L47.7244 11.895L48.9482 12.655L50.2886 10.1994L49.123 9.26398Z" fill="#16405E"/>
<path d="M43.0041 4.17743H41.9551V25.4008H43.0041V4.17743Z" fill="#90A4AE"/>
<path d="M44.4026 17.7417C44.286 17.5078 44.1695 17.2739 44.0529 16.9816C43.8198 16.5139 43.4119 16.1631 43.1205 15.6953C43.0622 15.5784 42.8874 15.0522 42.7126 15.0522C42.6543 15.0522 42.6543 15.0522 42.596 15.1107C42.1298 15.5199 42.6543 16.1046 42.8874 16.5139C43.0039 16.6308 43.0039 16.8062 43.1205 16.9816C42.7126 16.7477 42.3046 16.4554 41.8967 16.2215C41.7219 16.1046 41.4305 15.9292 41.2556 16.1046C40.7894 16.4554 41.6636 16.8647 41.8967 16.9816C41.7219 16.8647 41.1391 16.3385 40.906 16.5139C40.7894 16.5723 40.6729 16.9816 40.8477 17.0401C40.6729 16.9231 40.5563 17.5663 40.6146 17.6247C40.6729 17.7417 41.0225 17.8586 41.1974 17.9171C41.0225 17.8586 40.7894 17.7417 40.6146 17.8586C40.4398 17.9755 40.4398 18.2094 40.5563 18.3848C40.7312 18.5602 41.0225 18.7356 41.2556 18.911C41.4888 19.0864 41.8967 19.3202 42.1298 19.4372C42.4212 19.6126 42.7126 19.7295 43.004 19.8464C43.4119 20.0803 43.7615 20.0803 44.286 20.1973L44.6357 18.1509C44.5774 18.034 44.4026 17.8001 44.4026 17.7417Z" fill="#FFC28E"/>
<path d="M41.1392 3.76813V5.11286L42.4795 5.28826L44.053 5.22979L44.1113 3.88506L42.4795 4.00199L41.1392 3.76813Z" fill="#B6E7F2"/>
<path d="M41.8894 10.6617L41.8711 11.6555L44.0269 11.6955L44.0452 10.7017L41.8894 10.6617Z" fill="#225566"/>
<path d="M43.2372 10.6672H41.4307V12.0119H43.2372V10.6672Z" fill="#B6E7F2"/>
<path d="M19.4016 14.5259L19.5765 13.5905V12.9473C19.7513 12.5965 19.9261 12.3042 20.101 11.9534C20.2758 11.5441 20.4506 11.0764 20.6255 10.6671C20.6837 10.4917 20.8003 10.3163 20.8003 10.1409C20.8003 10.0825 20.8003 9.96554 20.8003 9.90707C20.8003 9.8486 20.6837 9.73167 20.5672 9.73167C20.5089 9.73167 20.3924 9.8486 20.3341 9.90707C20.2758 9.96554 20.1592 10.1409 20.101 10.2579C20.1592 10.0825 20.2175 9.90707 20.2758 9.73167C20.3924 9.43934 20.4506 9.20547 20.3341 8.91314C20.2758 8.79621 20.2175 8.62081 20.0427 8.67927C19.8679 8.73774 19.8096 8.97161 19.7513 9.08854C19.6348 9.32241 19.5182 9.55627 19.3434 9.79014C19.4599 9.49781 19.5765 9.14701 19.693 8.85467C19.8096 8.62081 20.0427 7.91921 19.6348 7.80227C19.3434 7.68534 19.2851 7.97767 19.1685 8.21154C19.052 8.62081 18.8189 9.03007 18.7023 9.43934L19.2851 6.80834C19.2851 6.69141 19.2268 6.57447 19.052 6.51601H18.9937C18.8189 6.45754 18.644 6.74987 18.644 6.86681L18.003 9.38087L17.8282 9.96554L17.5951 9.32241C17.5951 9.14701 17.5951 8.97161 17.5368 8.79621C17.5368 8.67927 17.5368 8.56234 17.4785 8.50387C17.4202 8.38694 17.1871 7.91921 17.0123 7.97767C16.8957 8.03614 16.954 8.44541 16.954 8.56234L17.0706 10.4333L17.3037 12.4211L17.362 13.532L17.2454 14.1167L19.3434 14.5259H19.4016Z" fill="#FEC29E"/>
<path d="M17.1289 12.5381C16.721 14.409 15.7886 16.8646 15.3806 18.7356C15.0893 17.5662 10.5437 12.4212 10.2523 12.1873C9.14502 11.4272 7.6881 11.018 6.9305 12.655C6.46429 13.649 6.75567 15.0522 7.22189 16.0461C7.62982 17.04 8.73708 17.6831 9.61124 18.5601C10.6019 19.5541 15.0893 23.1205 16.0217 23.2375C16.9541 23.3544 18.7024 21.2496 19.0521 18.3847C19.1104 18.0924 20.0428 13.7659 19.868 13.7074L17.1289 12.5381Z" fill="#BFDBEF"/>
<path d="M48.1322 27.1547C47.7243 27.2717 47.3164 27.3301 46.9084 27.4471C43.9363 28.0902 40.9059 28.9087 37.9921 29.7273C35.9524 30.3119 34.0875 30.9551 33.8544 33.3522C33.6213 35.3985 37.4676 44.8701 37.5259 47.5596C41.6052 47.5596 41.6635 47.3257 41.6635 47.3257C41.6635 47.3257 38.6914 39.3742 38.4 34.9893C38.4583 34.9308 38.5166 34.8139 38.5748 34.7554C38.7497 34.58 39.0411 34.4631 39.2742 34.4046C40.2649 33.9953 41.139 33.5276 41.7801 32.6506C42.2463 32.0075 42.829 31.4228 43.4118 30.8966C44.6939 29.8442 45.5098 29.1426 47.025 28.6164C49.2395 27.8563 51.862 27.1547 54.193 27.2132L48.1322 27.1547Z" fill="#2C3E50"/>
<path d="M55.3588 29.4934C55.3588 29.2595 54.9509 27.2717 54.6012 27.3301L48.0159 27.9733C45.918 28.5579 42.4214 29.0257 39.9155 29.5519C39.0413 29.7857 38.2254 30.0196 37.3513 30.2535C37.0599 30.3704 36.7685 30.3704 36.5354 30.4289C36.4771 30.4873 36.4189 30.5458 36.3606 30.6043C35.8944 31.0135 35.3699 31.4228 34.8454 31.8321C34.554 32.9429 34.4957 34.4631 34.9619 35.3401C35.3116 37.2694 37.8175 45.2794 38.342 47.735C41.2558 47.9104 42.1883 47.9104 42.1883 47.9104C42.1883 47.9104 40.7896 38.6726 39.0996 34.3461C39.6824 34.2876 49.9973 35.6909 53.7271 34.8139C55.3588 34.4046 55.5336 31.1305 55.3588 29.4934Z" fill="#34495E"/>
<path d="M46.3256 25.2838C49.356 25.4007 52.1533 26.9793 55.242 27.3301C55.3585 29.3765 55.4168 30.9551 55.242 33.0014L45.6846 31.5397C45.6846 28.7918 46.2091 27.8563 46.2091 26.3947C46.2091 26.0439 46.3256 25.5761 46.3256 25.2838Z" fill="#0F2E4F"/>
<path d="M52.1533 26.5116C52.3864 26.1608 52.736 25.6346 52.736 24.933C52.7943 22.4774 52.5612 18.9694 52.4447 16.5138C52.3864 14.7013 51.2208 12.0703 49.0063 12.5965C46.0925 13.2981 46.9084 16.5138 47.6077 18.5601C47.8991 19.2617 48.307 20.3726 48.4236 21.0742L44.2276 17.3323L42.5376 19.9049L46.9666 25.1084L48.4236 26.3362L51.2208 26.9209C51.3374 26.9793 52.0367 26.687 52.1533 26.5116Z" fill="#16405E"/>
<defs>
<linearGradient id="paint0_linear_35_674" x1="1.95697" y1="30.0867" x2="61.0963" y2="30.0867" gradientUnits="userSpaceOnUse">
<stop stop-color="#65AFC2"/>
<stop offset="0.2988" stop-color="#68B0C2"/>
<stop offset="0.4816" stop-color="#70B2C3"/>
<stop offset="0.6332" stop-color="#7EB6C4"/>
<stop offset="0.7677" stop-color="#93BCC6"/>
<stop offset="0.8898" stop-color="#ADC3C9"/>
<stop offset="1" stop-color="#CCCCCC"/>
</linearGradient>
</defs>
</svg>
