<svg width="120" height="119" viewBox="0 0 120 119" fill="none" xmlns="http://www.w3.org/2000/svg">
<path fill-rule="evenodd" clip-rule="evenodd" d="M83.711 0.621128C80.7784 2.08255 80.6479 2.62269 80.6479 13.299C80.6479 26.006 81.1964 26.9928 88.2662 26.9979C90.7624 27 91.3487 27.0628 91.3487 27.3281C91.3487 27.5086 90.9288 30.0896 90.4155 33.0636C89.9024 36.038 89.5219 38.5106 89.5701 38.5589C89.6181 38.6071 93.7805 36.0541 98.8195 32.8856L107.981 27.1247L111.587 27.0044C118.894 26.7606 119.322 25.9718 119.218 12.9262C119.107 -0.97667 120.593 0.0154773 99.8927 0.0154773H84.9265L83.711 0.621128ZM114.506 4.54118L115.077 5.11199V13.3964C115.077 18.355 114.985 21.8514 114.849 22.1059C114.468 22.8188 113.29 23.0457 109.97 23.0457H106.795L101.017 26.6584C97.8399 28.6457 95.205 30.2364 95.1621 30.1935C95.1192 30.1506 95.3417 28.6031 95.6567 26.7549C95.9717 24.9067 96.2305 23.3217 96.2317 23.2324C96.2329 23.1434 93.8811 23.0385 91.0056 22.9998C83.9674 22.9048 84.7362 24.0417 84.652 13.6087L84.5856 5.34723L85.274 4.6585L85.9624 3.97007H99.9487H113.935L114.506 4.54118ZM55.0588 5.86295C32.9338 7.67068 13.3344 23.7919 7.79627 44.738C7.13435 47.241 7.33772 47.3051 5.39273 43.982C4.49706 42.4518 3.68773 41.1979 3.59394 41.1953C3.45399 41.1914 0.464744 42.9357 0.194077 43.1795C0.118148 43.2477 6.54894 54.1185 6.90209 54.519C7.08611 54.7274 18.0664 48.2192 18.2242 47.808C18.3282 47.537 16.7893 44.7779 16.4001 44.5373C16.2819 44.4644 15.1704 45.0054 13.9296 45.7394C12.6888 46.4734 11.6011 47.1136 11.5127 47.1621C10.8868 47.5034 13.5422 40.2912 15.3074 36.8557C25.9473 16.1462 50.2466 5.29482 72.2972 11.4052C73.2384 11.6661 74.1263 11.8796 74.2702 11.8796C74.5042 11.8796 75.5327 8.90788 75.5306 8.23672C75.53 7.95415 70.8122 6.75088 67.9695 6.30841C63.7469 5.65124 59.4603 5.50326 55.0588 5.86295ZM88.3246 9.66956V11.647H99.9558H111.587V9.66956V7.69211H99.9558H88.3246V9.66956ZM88.3246 17.3462V19.3236H96.1176H103.911V17.3462V15.369H96.1176H88.3246V17.3462ZM107.4 17.3462V19.3236H109.494H111.587V17.3462V15.369H109.494H107.4V17.3462ZM55.5998 19.4162C45.7998 21.0191 38.0196 28.0818 35.2492 37.8895C34.5747 40.2778 34.2936 58.369 34.9035 60.1583C35.6681 62.4029 37.5452 64.2999 39.6516 64.9574C40.5511 65.2382 40.6122 65.3186 40.9942 66.7305C42.1454 70.9832 45.1736 75.1677 48.8016 77.5185C50.8064 78.8174 50.7412 78.848 43.0202 80.2413C31.648 82.2929 28.9768 83.9821 26.5408 90.6615L25.9003 92.4168L22.451 88.9461C17.9759 84.4436 17.9167 85.2306 23.1257 79.9923L27.2497 75.8451L20.0451 68.6374L12.8404 61.4298L7.91865 66.3473C-0.180211 74.4396 -1.61424 78.7923 1.57361 85.6067L2.50621 87.5999L16.9305 102.039C34.3291 119.455 33.7085 118.991 39.5891 119C44.8017 119.008 45.868 118.443 53.1301 111.829C59.4153 106.104 58.9461 106.858 57.2723 105.167L55.8874 103.768H76.4096C87.6969 103.768 96.9317 103.739 96.9317 103.705C96.9317 103.11 91.8683 88.7403 91.3225 87.7863C88.7942 83.3675 86.2432 82.0811 76.4962 80.3094C68.3137 78.8224 68.3506 78.8406 70.5743 77.3643C71.3035 76.8801 72.6479 75.7138 73.5624 74.7722L75.2251 73.0607L77.5292 73.0592C81.2715 73.0571 83.6518 71.7059 84.3512 69.1868C84.7699 67.6795 84.6868 42.2008 84.2553 39.7261C81.9465 26.4857 68.9027 17.2408 55.5998 19.4162ZM65.5269 24.0879C72.9028 26.4783 78.2191 32.1421 80.0798 39.5921C80.4339 41.0103 80.8799 50.7284 80.5911 50.7284C79.5951 50.7284 78.7869 49.9608 78.7869 49.0151V48.006L76.1696 47.869C70.3986 47.5668 66.1225 45.6709 61.7811 41.4894C59.4165 39.2119 59.6399 39.2577 58.1906 40.7534C53.8022 45.2815 48.8769 47.5742 42.9041 47.8699L40.1706 48.0051V49.1071C40.1706 49.9566 40.0774 50.2356 39.7635 50.3259C39.5396 50.3902 39.1612 50.523 38.9227 50.6207C38.245 50.8985 38.4793 41.6991 39.2195 38.9805C42.3279 27.5616 54.6758 20.5713 65.5269 24.0879ZM103.503 41.1792C101.68 44.2357 100.189 46.8447 100.189 46.9772C100.189 47.1913 103.156 49.1 103.488 49.1C103.561 49.1 104.226 48.0792 104.966 46.8319C105.705 45.5843 106.437 44.3778 106.591 44.1509C107.177 43.2859 108.844 50.8559 109.244 56.1951C110.152 68.3373 106.761 79.2533 98.5685 90.5671C98.2029 91.0721 98.3562 91.2549 100.625 93.0201L101.409 93.6311L101.977 92.9418C112.609 80.0379 116.2 60.2146 110.983 43.2257C110.897 42.9467 111.651 43.2948 113.374 44.3304C114.759 45.1621 116.01 45.8424 116.155 45.8427C116.411 45.843 118.456 42.6272 118.296 42.4753C118.183 42.3678 106.913 35.6059 106.862 35.6146C106.838 35.6187 105.327 38.1226 103.503 41.1792ZM62.6413 47.6391C65.6064 49.6505 69.438 51.159 72.9129 51.6828L74.832 51.9719L74.8282 57.4567C74.8237 63.554 74.6054 65.1688 73.4528 67.6316L72.7629 69.1058H66.1207H59.4788V71.0832V73.0607H64.4136C69.9383 73.0607 69.8567 73.0175 67.2718 74.5668C58.9931 79.5284 48.276 75.4398 45.031 66.0817C44.5489 64.6909 44.4992 64.0647 44.4134 58.2738L44.3199 51.9779L46.2295 51.6855C50.7591 50.992 57.244 47.9065 59.2486 45.4911C59.4981 45.1906 59.6535 45.2493 60.4024 45.9255C60.8783 46.3555 61.8859 47.1267 62.6413 47.6391ZM40.1706 57.6315V60.5796L39.5959 60.0398C38.3739 58.8919 38.2837 56.8939 39.3878 55.4391C40.1852 54.3883 40.1706 54.3472 40.1706 57.6315ZM79.7005 55.2961C80.9043 56.8263 80.8147 58.8755 79.4885 60.1461L78.7869 60.8185V57.7506C78.7869 54.549 78.8914 54.2677 79.7005 55.2961ZM80.6479 66.0996C80.6479 67.6089 80.5914 67.8025 79.9678 68.426C79.1466 69.2472 77.1963 69.4634 77.5062 68.6988C77.7963 67.9829 78.0595 67.1552 78.3191 66.1398C78.4912 65.4671 78.6994 65.1485 78.9703 65.1429C79.1892 65.1384 79.6302 64.9851 79.95 64.8022C80.2698 64.6194 80.5577 64.4661 80.5896 64.4616C80.6217 64.4571 80.6479 65.1941 80.6479 66.0996ZM20.5087 76.7807L19.5773 77.7121L15.2832 73.4132L10.9892 69.1144L11.9072 68.1747L12.8249 67.2347L17.1323 71.5421L21.4398 75.8495L20.5087 76.7807ZM16.0571 81.3528C14.9709 82.9503 14.6898 85.4768 15.4065 87.2003C15.8624 88.2958 30.582 103.129 31.8838 103.804C33.7026 104.748 36.1993 104.599 37.8996 103.445L38.7166 102.89L42.9845 107.163L47.2523 111.436L46.3542 112.355C43.5943 115.182 39.2118 115.909 35.6345 114.136C33.2711 112.964 6.19937 85.8875 5.14916 83.645C3.51831 80.1632 4.28862 75.9803 7.10993 72.9973L7.9398 72.1198L12.2243 76.4043L16.5088 80.6888L16.0571 81.3528ZM59.5949 80.7275C60.8744 80.7275 62.5755 80.5905 63.3753 80.4229C64.1748 80.2552 64.8293 80.1284 64.8293 80.1406C64.8293 80.1531 63.6498 81.3394 62.2084 82.7767L59.5874 85.3899L56.9552 82.7502L54.323 80.1105L55.7957 80.419C56.6059 80.5887 58.3157 80.7275 59.5949 80.7275ZM63.7243 87.1017L67.9695 82.8863L75.181 84.2221C86.404 86.3013 86.9373 86.7042 89.7961 95.2694L91.3126 99.8127H71.6129H51.9129L48.1962 96.0906C46.1521 94.0435 44.3899 92.3686 44.2803 92.3686C44.1707 92.3686 42.4946 93.8079 40.5556 95.5674C35.3754 100.268 35.362 100.278 34.5435 100.278C33.9372 100.278 33.4352 99.9002 31.4914 97.9823L29.165 95.6862L30.0329 93.1505C32.1396 86.9963 33.5135 86.1215 44.1481 84.1631L50.9877 82.9036L55.2333 87.1104L59.4788 91.3172L63.7243 87.1017ZM48.4928 102.203L52.7389 106.454L51.6256 107.55L50.5122 108.647L46.22 104.35L41.9274 100.053L42.9586 99.0021C44.2568 97.6795 43.588 97.2927 48.4928 102.203Z" fill="#5DC3B2"/>
</svg>
