<svg id="svg" xmlns="http://www.w3.org/2000/svg" xmlns:xlink="http://www.w3.org/1999/xlink" width="400" height="400" viewBox="0, 0, 400,400"><g id="svgg"><path id="path0" d="M280.600 2.034 C 270.751 6.942,270.313 8.756,270.313 44.611 C 270.313 87.286,272.155 90.600,295.898 90.617 C 304.281 90.624,306.250 90.835,306.250 91.726 C 306.250 92.332,304.840 101.000,303.116 110.988 C 301.393 120.977,300.115 129.281,300.277 129.443 C 300.438 129.605,314.417 121.031,331.340 110.390 L 362.109 91.043 374.219 90.639 C 398.759 89.820,400.195 87.171,399.846 43.359 C 399.474 -3.332,404.462 -0.000,334.944 -0.000 L 284.682 -0.000 280.600 2.034 M384.020 15.199 L 385.938 17.116 385.938 44.938 C 385.938 61.591,385.631 73.333,385.173 74.188 C 383.892 76.582,379.936 77.344,368.789 77.344 L 358.123 77.344 338.721 89.477 C 328.050 96.151,319.201 101.493,319.057 101.349 C 318.913 101.205,319.660 96.008,320.718 89.801 C 321.776 83.594,322.645 78.271,322.649 77.971 C 322.653 77.672,314.755 77.320,305.098 77.190 C 281.461 76.871,284.043 80.689,283.760 45.651 L 283.537 17.906 285.849 15.593 L 288.161 13.281 335.132 13.281 L 382.102 13.281 384.020 15.199 M184.375 19.638 C 110.071 25.709,44.249 79.850,25.650 150.195 C 23.427 158.601,24.110 158.816,17.578 147.656 C 14.570 142.517,11.852 138.306,11.537 138.297 C 11.067 138.284,1.028 144.142,0.119 144.961 C -0.136 145.190,21.461 181.698,22.647 183.043 C 23.265 183.743,60.141 161.886,60.671 160.505 C 61.020 159.595,55.852 150.329,54.545 149.521 C 54.148 149.276,50.415 151.093,46.248 153.558 C 42.081 156.023,38.428 158.173,38.131 158.336 C 36.029 159.482,44.947 135.261,50.875 123.723 C 86.608 54.173,168.214 17.730,242.268 38.251 C 245.429 39.127,248.411 39.844,248.894 39.844 C 249.680 39.844,253.134 29.864,253.127 27.610 C 253.125 26.661,237.281 22.620,227.734 21.134 C 213.553 18.927,199.157 18.430,184.375 19.638 M296.094 32.422 L 296.094 39.063 335.156 39.063 L 374.219 39.063 374.219 32.422 L 374.219 25.781 335.156 25.781 L 296.094 25.781 296.094 32.422 M296.094 58.203 L 296.094 64.844 322.266 64.844 L 348.438 64.844 348.438 58.203 L 348.438 51.563 322.266 51.563 L 296.094 51.563 296.094 58.203 M360.156 58.203 L 360.156 64.844 367.188 64.844 L 374.219 64.844 374.219 58.203 L 374.219 51.563 367.188 51.563 L 360.156 51.563 360.156 58.203 M186.192 65.155 C 153.280 70.538,127.151 94.257,117.847 127.195 C 115.582 135.216,114.638 195.973,116.686 201.982 C 119.254 209.520,125.558 215.891,132.632 218.099 C 135.653 219.042,135.858 219.312,137.141 224.054 C 141.007 238.336,151.177 252.389,163.361 260.284 C 170.094 264.646,169.875 264.749,143.945 269.428 C 105.753 276.318,96.782 281.991,88.601 304.423 L 86.450 310.318 74.866 298.662 C 59.837 283.541,59.638 286.184,77.132 268.592 L 90.982 254.664 66.786 230.458 L 42.590 206.252 26.061 222.767 C -1.138 249.944,-5.954 264.562,4.752 287.447 L 7.884 294.141 56.326 342.633 C 114.757 401.124,112.673 399.564,132.422 399.594 C 149.928 399.620,153.509 397.724,177.898 375.510 C 199.006 356.283,197.430 358.818,191.809 353.138 L 187.158 348.438 256.079 348.438 C 293.986 348.438,325.000 348.343,325.000 348.228 C 325.000 346.230,307.995 297.971,306.162 294.767 C 297.671 279.927,289.104 275.607,256.370 269.657 C 228.890 264.663,229.014 264.724,236.482 259.766 C 238.931 258.140,243.446 254.223,246.517 251.061 L 252.101 245.313 259.839 245.308 C 272.407 245.301,280.401 240.763,282.750 232.303 C 284.156 227.241,283.877 141.674,282.428 133.363 C 274.674 88.897,230.868 57.849,186.192 65.155 M219.531 80.844 C 244.302 88.872,262.156 107.893,268.405 132.913 C 269.594 137.676,271.092 170.313,270.122 170.313 C 266.777 170.313,264.063 167.735,264.063 164.559 L 264.063 161.170 255.273 160.710 C 235.892 159.695,221.531 153.328,206.951 139.285 C 199.010 131.636,199.760 131.790,194.893 136.813 C 180.155 152.020,163.614 159.720,143.555 160.713 L 134.375 161.167 134.375 164.868 C 134.375 167.721,134.062 168.658,133.008 168.961 C 132.256 169.177,130.985 169.623,130.184 169.951 C 127.908 170.884,128.695 139.989,131.181 130.859 C 141.620 92.510,183.089 69.034,219.531 80.844 M347.070 138.243 C 340.947 148.508,335.938 157.270,335.938 157.715 C 335.938 158.434,345.903 164.844,347.019 164.844 C 347.264 164.844,349.496 161.416,351.981 157.227 C 354.465 153.037,356.921 148.985,357.438 148.223 C 359.407 145.318,365.007 170.741,366.348 188.672 C 369.398 229.450,358.012 266.110,330.497 304.106 C 329.269 305.802,329.784 306.416,337.402 312.344 L 340.038 314.396 341.945 312.081 C 377.650 268.745,389.709 202.171,372.189 145.116 C 371.901 144.179,374.433 145.348,380.220 148.826 C 384.869 151.619,389.071 153.904,389.559 153.905 C 390.419 153.906,397.286 143.106,396.750 142.596 C 396.370 142.235,358.522 119.526,358.348 119.555 C 358.268 119.569,353.193 127.978,347.070 138.243 M209.840 159.938 C 219.798 166.693,232.666 171.759,244.336 173.518 L 250.781 174.489 250.768 192.909 C 250.753 213.386,250.020 218.809,246.149 227.080 L 243.832 232.031 221.525 232.031 L 199.219 232.031 199.219 238.672 L 199.219 245.313 215.792 245.313 C 234.346 245.313,234.072 245.168,225.391 250.371 C 197.588 267.034,161.596 253.303,150.698 221.875 C 149.079 217.204,148.912 215.101,148.624 195.653 L 148.310 174.509 154.723 173.527 C 169.935 171.198,191.714 160.836,198.446 152.724 C 199.284 151.715,199.806 151.912,202.321 154.183 C 203.919 155.627,207.303 158.217,209.840 159.938 M134.375 193.496 L 134.375 203.397 132.445 201.584 C 128.341 197.729,128.038 191.019,131.746 186.133 C 134.424 182.604,134.375 182.466,134.375 193.496 M267.131 185.653 C 271.174 190.792,270.873 197.674,266.419 201.941 L 264.063 204.199 264.063 193.896 C 264.063 183.144,264.414 182.199,267.131 185.653 M270.313 221.935 C 270.313 227.004,270.123 227.654,268.029 229.748 C 265.271 232.506,258.721 233.232,259.762 230.664 C 260.736 228.260,261.620 225.480,262.492 222.070 C 263.070 219.811,263.769 218.741,264.679 218.722 C 265.414 218.707,266.895 218.192,267.969 217.578 C 269.043 216.964,270.010 216.449,270.117 216.434 C 270.225 216.419,270.313 218.894,270.313 221.935 M68.343 257.806 L 65.215 260.934 50.794 246.497 L 36.373 232.060 39.456 228.904 L 42.538 225.747 57.004 240.213 L 71.470 254.679 68.343 257.806 M53.393 273.161 C 49.745 278.526,48.801 287.011,51.208 292.799 C 52.739 296.478,102.173 346.294,106.545 348.562 C 112.653 351.731,121.038 351.229,126.748 347.354 L 129.492 345.492 143.825 359.841 L 158.158 374.190 155.142 377.278 C 145.873 386.771,131.155 389.215,119.141 383.258 C 111.204 379.323,20.287 288.390,16.760 280.859 C 11.283 269.166,13.870 255.118,23.345 245.100 L 26.132 242.153 40.521 256.542 L 54.910 270.931 53.393 273.161 M199.609 271.061 C 203.906 271.061,209.619 270.601,212.305 270.038 C 214.990 269.475,217.188 269.049,217.188 269.090 C 217.188 269.132,213.227 273.116,208.386 277.943 L 199.584 286.719 190.744 277.854 L 181.904 268.989 186.850 270.025 C 189.571 270.595,195.313 271.061,199.609 271.061 M213.477 292.468 L 227.734 278.311 251.953 282.797 C 289.644 289.780,291.435 291.133,301.036 319.898 L 306.129 335.156 239.970 335.156 L 173.810 335.156 161.328 322.656 C 154.463 315.781,148.545 310.156,148.177 310.156 C 147.809 310.156,142.180 314.990,135.668 320.899 C 118.271 336.684,118.226 336.719,115.477 336.719 C 113.441 336.719,111.755 335.450,105.227 329.009 L 97.414 321.298 100.329 312.782 C 107.404 292.114,112.018 289.176,147.733 282.599 L 170.703 278.369 184.961 292.497 L 199.219 306.625 213.477 292.468 M162.324 343.183 L 176.584 357.459 172.845 361.142 L 169.106 364.825 154.691 350.394 L 140.275 335.962 143.738 332.434 C 148.098 327.992,145.852 326.693,162.324 343.183 " stroke="none" fill="#000000" fill-rule="evenodd"></path></g></svg>