<svg xmlns="http://www.w3.org/2000/svg" width="103" height="103" fill="none" viewBox="0 0 103 103"><g clip-path="url(#clip0_35_645)"><path fill="#BAE2DC" d="M3.38232 13.1364C3.38232 6.18668 9.70274 0.961846 16.5329 2.24552C30.3269 4.83782 43.0166 11.5035 53.1573 21.6443C64.3615 32.8484 71.3229 47.1646 73.236 62.6433L80.548 55.3314C84.8155 51.0639 91.7684 50.8026 96.1511 54.9513C100.698 59.2556 100.773 66.4334 96.3744 70.832L69.4958 97.7106C65.1706 102.036 58.1578 102.036 53.8324 97.7106L26.954 70.8322C24.7914 68.6695 23.7101 65.8351 23.7101 63.0006C23.7101 60.0863 24.8532 57.1719 27.1393 54.9878C31.5166 50.8058 38.4941 51.0456 42.775 55.3261L50.9743 63.5255C47.679 43.5918 32.1225 27.7408 12.3371 24.0117C7.12834 23.0296 3.38232 18.4364 3.38232 13.1364Z"/><path fill="#32B9A4" d="M61.6639 103C58.3022 103 54.9406 101.72 52.3813 99.1612L25.5029 72.2828C23.0234 69.8032 21.6579 66.5068 21.6579 63.0001C21.6579 59.3794 23.1011 56.0072 25.7218 53.5038C30.835 48.6182 39.1357 48.7853 44.2256 53.8748L47.2204 56.8696C41.9952 41.1684 28.5464 29.1548 11.9568 26.028C5.79931 24.8672 1.33008 19.4456 1.33008 13.1365C1.33008 9.21724 3.06016 5.53438 6.07612 3.03221C9.09954 0.524398 13.0493 -0.497555 16.9118 0.228676C31.1967 2.91331 44.232 9.81673 54.608 20.193C65.1595 30.7442 72.0386 43.8562 74.6538 58.3231L79.0963 53.8804C81.5427 51.434 84.7929 50.0324 88.2474 49.9342C91.7395 49.8296 95.0534 51.0871 97.5612 53.4612C100.161 55.9219 101.619 59.2453 101.669 62.8189C101.718 66.3939 100.353 69.7551 97.825 72.283L70.9468 99.1614C68.3871 101.721 65.0253 103 61.6639 103ZM34.7127 54.0397C32.4759 54.0397 30.257 54.8462 28.5565 56.4709C26.7542 58.1927 25.7618 60.5112 25.7618 62.9999C25.7618 65.4102 26.7003 67.6764 28.405 69.3807L55.2834 96.2591C58.8017 99.7774 64.5264 99.7774 68.0447 96.2591L94.9231 69.3807C96.6606 67.6432 97.5991 65.3327 97.5651 62.875C97.5315 60.4187 96.528 58.134 94.7402 56.4413C91.2274 53.1164 85.5113 53.2691 81.9984 56.7821L74.6868 64.0937C74.1322 64.6483 73.3104 64.8385 72.5687 64.5832C71.8271 64.3283 71.2956 63.6727 71.1995 62.8945C69.326 47.7362 62.5855 33.9739 51.7061 23.0949C41.9167 13.3055 29.6229 6.79312 16.1536 4.26217C13.4947 3.76186 10.7763 4.46515 8.69619 6.19061C6.62291 7.91083 5.43378 10.4422 5.43378 13.1365C5.43378 17.4741 8.49642 21.1996 12.7162 21.9949C33.3804 25.8898 49.5683 42.445 52.9979 63.1907C53.1433 64.0702 52.7039 64.9431 51.9111 65.3502C51.1181 65.7582 50.1531 65.6065 49.5222 64.9763L41.3228 56.7767C39.5037 54.9571 37.098 54.0397 34.7127 54.0397Z"/><path fill="#32B9A4" d="M59.4419 95.5942C58.9167 95.5942 58.3918 95.3936 57.9911 94.9931L43.0736 80.0754C42.2723 79.2741 42.2723 77.9747 43.0736 77.1733C43.8753 76.3722 45.1742 76.3726 45.9757 77.1733L60.8932 92.091C61.6945 92.8922 61.6945 94.1916 60.8932 94.9931C60.4925 95.3938 59.9672 95.5942 59.4419 95.5942Z"/><path fill="#32B9A4" d="M39.5074 75.6239C38.9821 75.6239 38.4572 75.4233 38.0565 75.0228L36.9169 73.8832C36.1156 73.0819 36.1156 71.7825 36.9169 70.981C37.7183 70.18 39.0173 70.18 39.819 70.981L40.9586 72.1207C41.7599 72.922 41.7599 74.2213 40.9586 75.0228C40.5575 75.4233 40.0326 75.6239 39.5074 75.6239Z"/></g><defs><clipPath id="clip0_35_645"><rect width="103" height="103" fill="#fff"/></clipPath></defs></svg>