<svg width="57" height="23" viewBox="0 0 57 23" fill="none" xmlns="http://www.w3.org/2000/svg">
<path d="M50.9147 4.25844C49.692 6.95594 48.4111 9.7085 47.1303 12.406C35.0785 7.78171 21.9787 7.78171 9.92695 12.406C8.64609 9.7085 7.36522 7.01099 6.14258 4.25844C6.31724 4.20339 6.43368 4.14834 6.60835 4.09329C20.9308 -1.24667 36.1265 -1.24667 50.4489 4.09329C50.5653 4.14834 50.74 4.20339 50.9147 4.25844Z" fill="#D6D7D8"/>
<path d="M50.4489 4.09332C49.3427 6.46051 48.2365 8.88276 47.1303 11.25C35.0786 6.62567 21.9788 6.62567 9.927 11.25C8.76258 8.88276 7.65638 6.51556 6.6084 4.09332C20.8726 -1.19159 36.1265 -1.19159 50.4489 4.09332Z" fill="#E6E7E8"/>
<path d="M18.2527 8.49743C18.2527 10.4242 17.5541 12.1308 16.4479 13.5621C14.8759 15.4889 12.3724 16.7551 9.57778 16.7551C4.80365 16.7551 0.902832 13.0667 0.902832 8.55247C0.902832 5.91002 2.24192 3.59788 4.27966 2.05644C5.73519 0.955422 7.59826 0.349861 9.636 0.349861C14.3519 0.294809 18.2527 3.92818 18.2527 8.49743Z" fill="#A4E6ED"/>
<path d="M18.2527 8.49741C18.2527 10.4242 17.554 12.1308 16.4478 13.5621C14.9923 14.6631 13.1292 15.2687 11.0915 15.2687C6.31732 15.2687 2.4165 11.5803 2.4165 7.06608C2.4165 5.19435 3.11516 3.43271 4.22136 2.00138C5.67689 0.900363 7.53997 0.2948 9.57771 0.2948C14.3518 0.2948 18.2527 3.92817 18.2527 8.49741Z" fill="#B8F2FF"/>
<path d="M56.1546 8.49742C56.1546 10.4242 55.456 12.1308 54.3498 13.5621C52.7778 15.4889 50.2743 16.7551 47.4797 16.7551C42.7055 16.7551 38.8047 13.0667 38.8047 8.55247C38.8047 5.91002 40.1438 3.59787 42.1815 2.05644C43.6371 0.955422 45.5001 0.349861 47.5379 0.349861C52.2538 0.294809 56.1546 3.92818 56.1546 8.49742Z" fill="#17C5CC"/>
<path d="M56.1545 8.49741C56.1545 10.4242 55.4559 12.1308 54.3497 13.5621C52.8941 14.6631 51.0311 15.2687 48.9933 15.2687C44.2192 15.2687 40.3184 11.5803 40.3184 7.06608C40.3184 5.19435 41.017 3.43271 42.1232 2.00138C43.5787 0.900363 45.4418 0.2948 47.4796 0.2948C52.2537 0.2948 56.1545 3.92817 56.1545 8.49741Z" fill="#26DDDD"/>
<path d="M12.9544 10.3692C12.8962 10.6995 12.6633 10.9197 12.314 10.9197H8.7625C8.41318 10.9197 8.12207 10.6444 8.12207 10.3141V3.65293C8.12207 3.32262 8.41318 3.04736 8.7625 3.04736H9.11183C9.46116 3.04736 9.75226 3.32262 9.75226 3.65293V9.10298C9.75226 9.43329 10.0434 9.70854 10.3927 9.70854H12.3722C12.7215 9.65349 13.0127 9.9838 12.9544 10.3692Z" fill="#225566"/>
<path d="M46.8977 8.33227V10.2591C46.8977 10.5894 46.6066 10.8646 46.2572 10.8646H45.9661C45.6168 10.8646 45.3257 10.5894 45.3257 10.2591V3.65293C45.3257 3.32262 45.6168 3.04736 45.9661 3.04736H47.8292C49.9834 3.04736 51.1478 3.81808 51.1478 5.35951C51.1478 6.24033 50.7985 6.79084 50.0416 7.23125C49.7505 7.3964 49.6341 7.78176 49.8087 8.05701L51.0314 9.9838C51.2643 10.3692 50.9732 10.9197 50.5074 10.9197H50.1581C49.9252 10.9197 49.6923 10.8096 49.5759 10.5894L48.1203 8.05701C48.0039 7.89186 47.771 7.7267 47.5381 7.7267C47.1888 7.78175 46.8977 8.00196 46.8977 8.33227ZM47.8874 6.68073C48.8772 6.68073 49.4012 6.29538 49.4012 5.35951C49.4012 4.53374 48.8772 4.14838 47.7128 4.14838H47.5381C47.1888 4.14838 46.8977 4.42364 46.8977 4.75395V6.07517C46.8977 6.40548 47.1888 6.68073 47.5381 6.68073H47.8874Z" fill="#225566"/>
<path d="M37.757 12.5711C37.757 12.7363 37.6988 12.8464 37.6406 13.0115C37.5823 13.1767 37.5241 13.3419 37.4077 13.507C36.1268 15.4338 31.6438 16.8101 26.2874 16.8101C19.9413 16.8101 14.8179 14.8282 14.8179 12.406C14.8179 11.8004 15.109 11.2499 15.6912 10.7544C15.8659 10.5893 16.0405 10.4241 16.2734 10.314C16.6227 10.0388 17.0303 9.81858 17.496 9.59838C18.2529 9.26807 19.1262 8.93776 20.116 8.71756C21.9209 8.27715 24.0168 8.00189 26.3457 8.00189C28.6745 8.00189 30.8287 8.27715 32.6335 8.71756C34.5548 9.26807 36.0686 9.98373 36.9419 10.8646C37.1166 11.0297 37.233 11.1949 37.3495 11.36C37.5823 11.7454 37.757 12.1858 37.757 12.5711Z" fill="#5AC7E5"/>
<path d="M37.7573 12.5711C37.7573 12.7363 37.6991 12.8464 37.6409 13.0115C37.5826 13.1767 37.5244 13.3419 37.408 13.507C35.3702 14.8833 31.7605 15.7641 27.6268 15.7641C21.2807 15.7641 16.1572 13.6171 16.1572 11.0297C16.1572 10.8095 16.2154 10.5893 16.2737 10.4241C16.623 10.1489 17.0305 9.92868 17.4963 9.65342C18.2532 9.26807 19.1265 8.93776 20.1163 8.71755C21.9211 8.22209 24.0171 7.94684 26.3459 7.94684C28.6748 7.94684 30.829 8.22209 32.6338 8.71755C34.5551 9.26806 36.0689 9.98373 36.9422 10.8645C37.1169 11.0297 37.2333 11.1949 37.3498 11.36C37.5826 11.7454 37.7573 12.1858 37.7573 12.5711Z" fill="#81D8F7"/>
<path d="M37.2914 11.36C35.1954 12.406 31.9933 13.0666 28.4418 13.0666C23.2019 13.0666 18.7771 11.6353 17.438 9.65342C18.1949 9.26806 19.0682 8.93776 20.0579 8.71755C21.8628 8.22209 23.9588 7.94684 26.2876 7.94684C28.6165 7.94684 30.7706 8.22209 32.5755 8.71755C34.4968 9.26806 36.0105 9.98373 36.8839 10.8645C37.0585 11.0847 37.175 11.1949 37.2914 11.36Z" fill="#B8F2FF"/>
<path d="M33.9727 10.0388C33.9727 10.5893 32.0514 11.0297 29.6643 11.0297C27.2773 11.0297 25.356 10.5893 25.356 10.0388C25.356 9.48826 27.2773 9.04785 29.6643 9.04785C31.9932 9.04785 33.9727 9.48826 33.9727 10.0388Z" fill="white"/>
<path d="M49.4011 16.0945C49.4011 16.2596 49.3428 16.4248 49.3428 16.59C49.11 17.6359 48.5277 18.6268 47.7127 19.5077C45.6749 21.5446 42.1234 22.9208 38.0479 22.9208C32.2258 22.9208 27.4517 20.1683 26.753 16.59C26.6948 16.4248 26.6948 16.2596 26.6948 16.0945C26.8113 15.7642 27.1606 15.4889 27.7428 15.2137C29.5477 14.3329 33.5067 13.7824 38.1062 13.7824C44.0447 13.7273 49.0517 14.7733 49.4011 16.0945Z" fill="#81D8F7"/>
<path d="M49.4011 16.2596C49.4011 16.3697 49.3428 16.4798 49.2846 16.59C49.0517 17.6359 48.4695 18.6268 47.6544 19.5077C45.5585 21.0491 42.4728 22.04 39.0377 22.04C34.38 22.04 30.3627 20.2784 28.6161 17.691C28.1503 17.0854 27.8592 16.3697 27.7428 15.7091C27.6846 15.544 27.6846 15.3788 27.6846 15.2137C29.4894 14.3329 33.4485 13.7823 38.0479 13.7823C44.1029 13.7823 49.0517 14.8283 49.4593 16.1495C49.4011 16.1495 49.4011 16.2046 49.4011 16.2596Z" fill="#B8F2FF"/>
<path d="M49.4009 16.2596C49.4009 16.3697 49.3427 16.4798 49.2845 16.59C49.1681 16.7551 48.9934 16.9203 48.7605 17.0854C48.2365 17.4157 47.3632 17.746 46.1988 18.0213C44.1028 18.5167 41.1918 18.792 37.9314 18.792C34.0306 18.792 30.5955 18.3516 28.5578 17.691C27.568 17.3607 26.8693 16.9753 26.6365 16.59C26.5782 16.4798 26.52 16.3697 26.52 16.2596C26.52 16.2046 26.52 16.1495 26.52 16.0945C26.52 15.9844 26.5782 15.9293 26.6365 15.8743C26.6947 15.7642 26.7529 15.7091 26.8693 15.599C27.044 15.4339 27.2769 15.3238 27.568 15.2137C29.3729 14.3329 33.3319 13.7823 37.9314 13.7823C43.9864 13.7823 48.9352 14.8283 49.3427 16.1495C49.4009 16.1495 49.4009 16.2046 49.4009 16.2596Z" fill="#B8F2FF"/>
<path d="M48.9352 16.645C48.9352 16.7551 48.877 16.8652 48.8187 16.9753C48.8187 16.9753 48.8187 17.0304 48.7605 17.0304C48.2365 17.3607 47.3632 17.691 46.1988 17.9663C44.1028 18.4617 41.1918 18.737 37.9314 18.737C34.0306 18.737 30.5955 18.2966 28.5578 17.636C27.568 17.3056 26.8693 16.9203 26.6365 16.5349C26.5782 16.4248 26.52 16.3147 26.52 16.2046C26.52 16.1496 26.52 16.0945 26.52 16.0395C26.52 15.9294 26.5782 15.8743 26.6365 15.8193C26.7529 15.7092 26.9276 15.6541 27.1022 15.5991C28.9071 14.7182 32.8661 14.1677 37.4656 14.1677C43.5206 14.1677 48.4694 15.2137 48.877 16.5349C48.9352 16.59 48.9352 16.645 48.9352 16.645Z" fill="#5AC7E5"/>
<path d="M46.6644 17.3056C46.6644 17.3607 46.6644 17.3607 46.6644 17.4157C46.6644 17.4708 46.6062 17.5809 46.548 17.6359C46.4898 17.746 46.3733 17.8561 46.2569 17.9662C44.1609 18.4617 41.2498 18.7369 37.9895 18.7369C34.0887 18.7369 30.6536 18.2965 28.6159 17.6359C27.6261 17.3056 26.9275 16.9202 26.6946 16.5349C26.6363 16.4248 26.5781 16.3147 26.5781 16.2046C26.5781 16.1495 26.5781 16.0945 26.5781 16.0394C26.6363 15.8743 26.7528 15.7091 26.9275 15.544C26.9857 15.544 26.9857 15.544 27.0439 15.544C29.1399 15.0485 31.9927 14.7733 35.1949 14.7733C41.2499 14.7733 46.1986 15.8192 46.6062 17.1404C46.6644 17.2506 46.6644 17.2505 46.6644 17.3056Z" fill="#81D8F7"/>
<path d="M44.3937 20.2784C44.5102 20.5536 42.4142 21.3794 39.736 21.3794C37.0579 21.3794 34.9619 20.6087 35.0784 20.2784C35.1366 20.0031 37.2325 20.2784 39.736 20.2233C42.2395 20.2233 44.3355 19.948 44.3937 20.2784Z" fill="white"/>
</svg>
