<svg width="56" height="31" viewBox="0 0 56 31" fill="none" xmlns="http://www.w3.org/2000/svg">
<path d="M1.21726 15.3372C0.371287 13.8811 40.5876 -3.85645 43.5159 1.23978C44.1016 2.23256 43.5159 3.29151 42.3446 3.55625C41.0431 3.82099 39.9368 2.62967 36.0323 3.29151C22.1714 5.5418 2.19338 16.3961 1.93308 16.5947L1.21726 15.3372Z" fill="#225566"/>
<path d="M55.1643 14.8738C55.75 13.2853 12.6704 2.76196 10.588 8.32148C10.1976 9.38044 10.9785 10.3732 12.2149 10.4394C13.5815 10.5056 14.4925 9.1157 18.397 9.04952C32.5833 8.91715 54.3834 16.1975 54.6437 16.2637L55.1643 14.8738Z" fill="#225566"/>
<path opacity="0.57" d="M22.0415 17.9184C23.1478 19.573 22.8875 21.4923 22.0415 23.147C21.3908 24.4707 20.3496 25.5958 19.3735 26.39C15.9896 28.8389 12.02 28.6403 8.70119 27.5152C6.55371 26.7871 4.99192 25.1325 4.27609 22.816C2.58415 17.3227 5.70774 16.1314 10.1328 16.2637C12.8009 16.3299 15.4039 16.1314 18.0069 16.5285C19.1132 16.6608 21.3257 16.8594 22.0415 17.9184Z" fill="#B2CCDB"/>
<path opacity="0.75" d="M11.8246 26.7872C9.54699 26.1253 8.18042 24.7354 7.59475 22.7499C6.22817 18.7126 8.11534 17.4551 11.1088 17.2565V17.058C6.6837 17.058 4.01563 17.786 5.51235 22.6175C6.09802 24.5369 7.39952 25.9268 9.22162 26.5224C10.0676 26.7872 10.9136 26.9857 11.7595 27.1181L11.8246 26.7872Z" fill="white"/>
<path opacity="0.57" d="M45.1432 16.0652C49.5683 15.9328 52.6918 17.058 51.065 22.5513C50.4142 24.8678 48.8524 26.5224 46.705 27.3166C43.3861 28.508 39.4166 28.7065 36.0978 26.2577C35.0566 25.5296 34.0804 24.3383 33.3646 23.0808C32.5186 21.4262 32.1933 19.5068 33.2995 17.8522C33.9503 16.7932 36.2279 16.5947 37.2691 16.3961C39.8721 15.999 42.5402 16.1314 45.1432 16.0652Z" fill="#B2CCDB"/>
<path d="M37.334 16.3961C36.2928 16.5947 34.0803 16.7932 33.3645 17.8522C32.3233 19.5068 32.5836 21.4262 33.4295 23.0808C34.0803 24.4045 35.1215 25.5296 36.1627 26.2576C39.4815 28.7065 43.386 28.4417 46.7699 27.3166C48.9174 26.5886 50.4791 24.8678 51.1299 22.5513C52.7568 17.058 49.6332 15.9328 45.2081 16.0652C42.54 16.1314 39.8719 15.999 37.334 16.3961ZM7.79003 30.0302C5.05688 29.1036 3.10464 26.9195 2.25866 24.0074C1.08732 19.9039 1.21747 17.2565 1.21747 16.6608C1.08732 16.6608 0.761942 16.6608 0.631792 16.6608C0.0461183 16.6608 -0.0840312 15.8004 0.0461186 15.2048C0.176268 14.6091 0.631792 14.0796 1.21747 14.1458C2.06344 14.0135 20.6749 14.0796 23.7984 15.0724C24.1238 15.1386 24.3841 15.4695 24.5143 15.8004C26.6617 15.0062 28.9394 14.94 31.0868 15.5357C31.217 15.271 31.4122 15.0724 31.6725 15.0062C34.7961 13.9473 53.3424 13.6825 54.1884 13.8149C54.8392 13.7487 55.2947 14.2782 55.3598 14.8739C55.4899 15.4695 55.4899 16.2637 54.6439 16.3961C54.5138 16.3961 54.3836 16.3961 54.2535 16.3961C54.3186 17.058 54.3836 19.573 53.2123 23.6764C52.3663 26.5886 50.4792 28.7727 47.746 29.7654C45.5985 30.4935 43.7114 30.8244 42.0194 30.7582C36.5531 30.6258 33.2994 27.0519 31.7376 24.603C30.6313 22.8822 30.1758 19.9701 30.4361 17.8522C28.6791 17.3227 26.922 17.4551 25.165 18.1169C25.3602 20.1025 24.9698 22.8822 23.8635 24.603C22.3017 27.0519 19.1131 30.692 13.5817 30.8906C11.8247 31.0229 9.9375 30.7582 7.79003 30.0302ZM10.1327 16.2637C5.70763 16.1976 2.58404 17.3889 4.27599 22.816C4.92673 25.1325 6.55361 26.7871 8.70108 27.5152C12.085 28.6403 15.9895 28.8388 19.3083 26.3238C20.3495 25.5958 21.3256 24.4045 21.9764 23.0808C22.8223 21.36 23.0826 19.4406 21.9764 17.8522C21.2605 16.7932 19.048 16.6608 18.0068 16.4623C15.4038 16.1314 12.8008 16.3299 10.1327 16.2637Z" fill="#225566"/>
<path opacity="0.75" d="M42.0846 27.0519C39.6768 26.3901 38.05 25.0002 36.9437 23.0147C34.7311 18.9112 36.2929 17.6537 39.2864 17.4551V17.2566C34.8613 17.2566 32.3884 17.9846 34.9264 22.8161C35.9025 24.7355 37.5294 26.1254 39.4816 26.721C40.3276 26.9858 41.2386 27.1843 42.1497 27.3167L42.0846 27.0519Z" fill="white"/>
</svg>
