<svg xmlns="http://www.w3.org/2000/svg" width="27" height="27" fill="none" viewBox="0 0 27 27"><path fill="#5DC3B2" d="M21.3189 16.7256C20.7661 16.15 20.0994 15.8423 19.3928 15.8423C18.6919 15.8423 18.0194 16.1443 17.4439 16.7199L15.6431 18.5149C15.495 18.4351 15.3468 18.3611 15.2044 18.287C14.9992 18.1844 14.8055 18.0875 14.6402 17.985C12.9534 16.9136 11.4205 15.5175 9.9503 13.711C9.23798 12.8107 8.75931 12.0528 8.4117 11.2835C8.87898 10.8561 9.31207 10.4116 9.73376 9.98421C9.89332 9.82465 10.0529 9.65939 10.2124 9.49983C11.4091 8.30314 11.4091 6.75314 10.2124 5.55644L8.65673 4.00074C8.48008 3.82409 8.29773 3.64173 8.12677 3.45938C7.78486 3.10607 7.42585 2.74136 7.05544 2.39945C6.50269 1.85239 5.84166 1.56177 5.14643 1.56177C4.45121 1.56177 3.77878 1.85239 3.20893 2.39945C3.20323 2.40515 3.20323 2.40515 3.19753 2.41085L1.26003 4.36545C0.530618 5.09486 0.114625 5.98383 0.0234486 7.01527C-0.113316 8.67924 0.376758 10.2292 0.752861 11.2436C1.67602 13.7338 3.05507 16.0418 5.11224 18.5149C7.6082 21.4953 10.6113 23.8487 14.0419 25.507C15.3525 26.1282 17.102 26.8633 19.0566 26.9886C19.1762 26.9943 19.3016 27 19.4156 27C20.7319 27 21.8375 26.5271 22.7036 25.5868C22.7093 25.5754 22.7207 25.5697 22.7264 25.5583C23.0227 25.1993 23.3647 24.8745 23.7237 24.5269C23.9687 24.2932 24.2194 24.0482 24.4645 23.7918C25.0286 23.2048 25.325 22.521 25.325 21.8201C25.325 21.1134 25.0229 20.4353 24.4474 19.8655L21.3189 16.7256ZM23.359 22.7261C23.3533 22.7261 23.3533 22.7318 23.359 22.7261C23.1367 22.9655 22.9088 23.182 22.6637 23.4214C22.2933 23.7747 21.9172 24.1451 21.5639 24.5611C20.9884 25.1765 20.3102 25.4671 19.4213 25.4671C19.3358 25.4671 19.2446 25.4671 19.1591 25.4614C17.4667 25.3532 15.8939 24.6921 14.7143 24.128C11.4889 22.5666 8.65673 20.3498 6.30324 17.5405C4.36004 15.1984 3.06077 13.0329 2.20029 10.7079C1.67033 9.28898 1.47658 8.18347 1.56205 7.14064C1.61904 6.47391 1.87547 5.92115 2.34845 5.44817L4.29165 3.50497C4.57088 3.24284 4.86721 3.10037 5.15783 3.10037C5.51684 3.10037 5.80746 3.31692 5.98982 3.49927C5.99552 3.50497 6.00121 3.51067 6.00691 3.51637C6.35452 3.84118 6.68504 4.1774 7.03265 4.5364C7.2093 4.71876 7.39166 4.90111 7.57401 5.08916L9.12971 6.64486C9.73376 7.24891 9.73376 7.80736 9.12971 8.41141C8.96445 8.57667 8.8049 8.74192 8.63964 8.90148C8.16096 9.39156 7.70508 9.84744 7.20931 10.2919C7.19791 10.3033 7.18651 10.309 7.18081 10.3204C6.69074 10.8105 6.78191 11.2892 6.88449 11.614C6.89019 11.6311 6.89589 11.6482 6.90158 11.6653C7.30618 12.6454 7.87603 13.5686 8.74221 14.6684L8.74791 14.6741C10.3207 16.6116 11.979 18.1217 13.8082 19.2785C14.0419 19.4267 14.2812 19.5464 14.5091 19.6603C14.7143 19.7629 14.908 19.8598 15.0733 19.9623C15.0961 19.9737 15.1189 19.9908 15.1417 20.0022C15.3354 20.0991 15.5178 20.1447 15.7058 20.1447C16.1788 20.1447 16.4751 19.8484 16.572 19.7515L18.5209 17.8026C18.7147 17.6088 19.0224 17.3752 19.3814 17.3752C19.7347 17.3752 20.0253 17.5975 20.202 17.7912C20.2077 17.7969 20.2077 17.7969 20.2134 17.8026L23.3533 20.9425C23.9402 21.5237 23.9402 22.1221 23.359 22.7261Z"/><path fill="#5DC3B2" d="M14.5717 6.42259C16.0647 6.67333 17.421 7.37995 18.5037 8.46267C19.5864 9.54539 20.2873 10.9016 20.5438 12.3947C20.6065 12.7708 20.9313 13.0329 21.3017 13.0329C21.3473 13.0329 21.3872 13.0272 21.4328 13.0215C21.8544 12.9531 22.1337 12.5542 22.0653 12.1325C21.7576 10.3261 20.9028 8.67922 19.5978 7.37425C18.2929 6.06929 16.646 5.2145 14.8395 4.90678C14.4179 4.8384 14.0247 5.11763 13.9506 5.53362C13.8765 5.94962 14.15 6.35421 14.5717 6.42259Z"/><path fill="#5DC3B2" d="M26.9489 11.9103C26.4417 8.93564 25.0398 6.22883 22.8858 4.07479C20.7317 1.92074 18.0249 0.518898 15.0503 0.0117284C14.6343 -0.0623526 14.2411 0.222574 14.167 0.638568C14.0986 1.06026 14.3779 1.45346 14.7996 1.52754C17.4551 1.97772 19.877 3.2371 21.8031 5.15751C23.7292 7.08361 24.9829 9.50549 25.433 12.161C25.4957 12.5371 25.8205 12.7992 26.1909 12.7992C26.2365 12.7992 26.2764 12.7935 26.322 12.7879C26.738 12.7252 27.0229 12.3263 26.9489 11.9103Z"/></svg>