<svg id="svg" xmlns="http://www.w3.org/2000/svg" xmlns:xlink="http://www.w3.org/1999/xlink" width="400" height="400" viewBox="0, 0, 400,400"><g id="svgg"><path id="path0" d="M82.846 2.487 C 81.281 4.052,80.000 11.258,80.000 18.498 L 80.000 31.663 49.000 32.832 L 18.000 34.000 18.000 208.000 L 18.000 382.000 113.687 383.074 L 209.374 384.148 202.067 376.074 C 195.194 368.479,189.929 368.000,113.380 368.000 L 32.000 368.000 32.000 244.000 L 32.000 120.000 200.000 120.000 L 368.000 120.000 368.000 197.380 C 368.000 269.863,368.510 275.222,376.057 282.052 L 384.114 289.343 383.057 161.672 L 382.000 34.000 351.232 32.836 L 320.463 31.672 319.232 16.836 L 318.000 2.000 296.000 2.000 L 274.000 2.000 272.759 17.000 L 271.517 32.000 200.000 32.000 L 128.483 32.000 127.241 17.000 L 126.000 2.000 105.846 0.820 C 94.762 0.171,84.412 0.921,82.846 2.487 M112.000 40.000 C 112.000 61.333,111.111 64.000,104.000 64.000 C 96.889 64.000,96.000 61.333,96.000 40.000 C 96.000 18.667,96.889 16.000,104.000 16.000 C 111.111 16.000,112.000 18.667,112.000 40.000 M304.000 40.000 C 304.000 61.333,303.111 64.000,296.000 64.000 C 288.889 64.000,288.000 61.333,288.000 40.000 C 288.000 18.667,288.889 16.000,296.000 16.000 C 303.111 16.000,304.000 18.667,304.000 40.000 M80.759 63.000 L 82.000 78.000 104.000 78.000 L 126.000 78.000 127.241 63.000 L 128.483 48.000 200.000 48.000 L 271.517 48.000 272.759 63.000 L 274.000 78.000 296.000 78.000 L 318.000 78.000 319.241 63.000 L 320.483 48.000 344.241 48.000 L 368.000 48.000 368.000 76.000 L 368.000 104.000 200.000 104.000 L 32.000 104.000 32.000 76.000 L 32.000 48.000 55.759 48.000 L 79.517 48.000 80.759 63.000 M80.000 244.000 L 80.000 336.000 121.143 336.000 C 159.619 336.000,162.286 335.481,162.286 328.000 C 162.286 323.600,159.971 320.000,157.143 320.000 C 153.638 320.000,152.000 313.630,152.000 300.000 L 152.000 280.000 171.667 280.000 C 182.483 280.000,191.933 281.631,192.667 283.625 C 193.400 285.619,200.232 282.019,207.849 275.625 C 217.675 267.377,219.708 264.000,214.849 264.000 C 209.297 264.000,208.000 260.213,208.000 244.000 L 208.000 224.000 228.000 224.000 C 247.662 224.000,248.000 224.208,248.000 236.293 C 248.000 252.486,261.378 251.323,263.266 234.966 C 265.095 219.115,304.000 217.747,304.000 233.533 C 304.000 239.703,306.823 243.805,312.000 245.159 C 319.669 247.165,320.000 245.282,320.000 199.626 L 320.000 152.000 200.000 152.000 L 80.000 152.000 80.000 244.000 M136.000 188.000 L 136.000 208.000 116.000 208.000 L 96.000 208.000 96.000 188.000 L 96.000 168.000 116.000 168.000 L 136.000 168.000 136.000 188.000 M192.000 188.000 L 192.000 208.000 172.000 208.000 L 152.000 208.000 152.000 188.000 L 152.000 168.000 172.000 168.000 L 192.000 168.000 192.000 188.000 M248.000 188.000 L 248.000 208.000 228.000 208.000 L 208.000 208.000 208.000 188.000 L 208.000 168.000 228.000 168.000 L 248.000 168.000 248.000 188.000 M304.000 188.000 L 304.000 208.000 284.000 208.000 L 264.000 208.000 264.000 188.000 L 264.000 168.000 284.000 168.000 L 304.000 168.000 304.000 188.000 M136.000 244.000 L 136.000 264.000 116.000 264.000 L 96.000 264.000 96.000 244.000 L 96.000 224.000 116.000 224.000 L 136.000 224.000 136.000 244.000 M192.000 244.000 L 192.000 264.000 172.000 264.000 L 152.000 264.000 152.000 244.000 L 152.000 224.000 172.000 224.000 L 192.000 224.000 192.000 244.000 M240.939 266.281 C 217.462 277.980,176.000 317.333,176.000 327.916 C 176.000 338.330,218.311 378.443,241.466 389.981 C 285.915 412.131,333.756 400.680,377.320 357.462 C 405.400 329.605,405.400 326.395,377.320 298.538 C 333.541 255.107,285.951 243.851,240.939 266.281 M323.479 283.734 C 331.816 287.988,347.495 299.688,358.319 309.734 L 378.000 328.000 358.319 346.266 C 331.809 370.870,312.778 380.000,288.000 380.000 C 263.222 380.000,244.191 370.870,217.681 346.266 L 198.000 328.000 217.649 309.762 C 254.523 275.538,290.209 266.761,323.479 283.734 M136.000 300.000 L 136.000 320.000 116.000 320.000 L 96.000 320.000 96.000 300.000 L 96.000 280.000 116.000 280.000 L 136.000 280.000 136.000 300.000 M253.600 293.600 C 222.022 325.178,243.240 376.000,288.000 376.000 C 318.170 376.000,336.000 358.170,336.000 328.000 C 336.000 309.678,334.379 305.579,322.400 293.600 C 310.421 281.621,306.322 280.000,288.000 280.000 C 269.678 280.000,265.579 281.621,253.600 293.600 M308.000 308.000 C 312.444 312.444,316.000 321.333,316.000 328.000 C 316.000 334.667,312.444 343.556,308.000 348.000 C 303.556 352.444,294.667 356.000,288.000 356.000 C 281.333 356.000,272.444 352.444,268.000 348.000 C 263.556 343.556,260.000 334.667,260.000 328.000 C 260.000 321.333,263.556 312.444,268.000 308.000 C 272.444 303.556,281.333 300.000,288.000 300.000 C 294.667 300.000,303.556 303.556,308.000 308.000 M273.656 317.454 C 267.911 332.425,273.506 342.000,288.000 342.000 C 308.915 342.000,309.821 314.754,288.972 312.745 C 280.236 311.903,275.191 313.454,273.656 317.454 " stroke="none" fill="#000000" fill-rule="evenodd"></path></g></svg>