<svg id="Layer_1" data-name="Layer 1" xmlns="http://www.w3.org/2000/svg" viewBox="0 0 500 494.63"><defs><style>.cls-1{fill:#35b8a4;}.cls-2{fill:#fff;}.cls-3{fill:#e7525c;}</style></defs><path class="cls-1" d="M219.4,385.22c-.3-23.91-3-33.18-11.83-44.54,0,0-3.55-19.13-11.53-34.67,0,0-1.18-55-11.24-75.34,0,0-4.73-12.1-4.43-23.76l-1.87-15a131.53,131.53,0,0,1-30.39,3.41A165.14,165.14,0,0,1,96.89,187l-.15,0a146.16,146.16,0,0,0-5.52,14.08h0s-13,28.51-5.37,77.82c4.14,26.71-7.3,60.39-7.3,60.39S66.92,355,69.68,389.91c2.26,28.47,3.29,58.83,2.42,75.95H85.56c-.65-17.85,2.28-54.35,16.06-78.55,0,0,7.29-8.76,4.14-44.24a61.2,61.2,0,0,0,9.66-30.49c.78-18.13,9.46-40.45,12-64.77s18.14,6.38,21.68,21.33,20.9,64.77,32.14,77.52c0,0,1.74,29.53,18.92,61.78,5.86,11,8.27,40.92,9.17,57.42h15.28C222.65,449.33,219.65,405.65,219.4,385.22Z"/><path class="cls-1" d="M189.83,73.14s-2.51-3.59-9.91-2.39c-5.14.83-9.44,3.18-16.07,4.13,4.23,5.27,3.94,16.73,2.28,40.16a20.83,20.83,0,0,1,7.05,7.58,1.61,1.61,0,0,1,.16,1.28A48.26,48.26,0,0,1,178,137.63a4.7,4.7,0,0,1-2.95,5.31,24.36,24.36,0,0,1-2.44.74,2.88,2.88,0,1,1-.41-2.2c.7-.18,1.4-.39,2.11-.64a2.47,2.47,0,0,0,1.53-2.77A45.78,45.78,0,0,0,171.4,125a1.53,1.53,0,0,1-1-.73c-2.7-4.56-5.48-6.26-6.51-6.77-1.07.47-3.9,2.06-6.77,6.51a1.57,1.57,0,0,1-1,.7,46.23,46.23,0,0,0-4.91,12.87,2.46,2.46,0,0,0,1.43,2.83c.69.28,1.38.52,2.08.73a2.82,2.82,0,0,1,2.37-1.2,2.89,2.89,0,1,1-2.87,3.38c-.81-.24-1.61-.52-2.41-.84a4.69,4.69,0,0,1-2.74-5.42,48,48,0,0,1,5.19-13.54,1.64,1.64,0,0,1,.21-1.27c3.12-4.84,6.32-6.84,8-7.61,1.58-22.3,2-33.6-1.71-37.69a6.13,6.13,0,0,0-2.67-1.68c-.44,0-.87,0-1.33,0L155,76.39c-4,7.33-12.72,16-13.1,16.43l-1.37,1.35-1.29-1.43c-4.6-5.09-14.94-17-17.1-19.48a17.06,17.06,0,0,0-2.4-.33c4.06,5.42,3.59,16.72,3.17,26.76-.1,2.34-.19,4.54-.21,6.5a7.08,7.08,0,1,1-3.69,0c0-2,.11-4.28.21-6.65.37-8.92.88-21.12-2.89-24.92a3.75,3.75,0,0,0-2.47-1.13,23,23,0,0,0-7.45,3.57c-3.94,2.81-8,5.54-12,8.21-5.72,5.25-14,13-22.41,21.11A41.43,41.43,0,0,0,87,122.1c5.51-4.57,10.45-8.74,12.87-11,0,0,2.56,17.3,12.22,28.7,4.69,5.52-5,32.23-13.62,43.81C103,185.2,140,197.35,178,188.15l-.33-2.71h0s-5.72-23.92-1.19-39.06c2.07-6.9,13.41-24.32,11.83-42,4.35,6.12,4.2,5.9,9.79,13.38a34,34,0,0,0,15.63-14.64C204.11,89.89,194.34,77.49,189.83,73.14ZM148.64,111.7c-2,.13-4,.2-6,.25V118a42.29,42.29,0,0,1-5.74,0V112c-2,0-4-.12-6-.25v-5.22q3-.2,6-.25v-6.08a42.29,42.29,0,0,1,5.74,0v6.08c2,0,4,.12,6,.25Z"/><path class="cls-1" d="M116.13,113a4.73,4.73,0,1,0,4.77-4.73A4.76,4.76,0,0,0,116.13,113Zm4.75-2.85A2.89,2.89,0,1,1,118,113,2.87,2.87,0,0,1,120.88,110.18Z"/><path class="cls-2" d="M44.5,97.9S58,99.12,75.05,93.35l3.06-1.95C86.62,86,95.68,80.15,104.29,74c4.26-3,11.06-6.24,19.28-4.25l.57.14.39.44c.11.14,10.52,12.13,16.14,18.43,2.66-2.79,8.57-9.28,11.3-14.55l.23-.44,1-.62a35.73,35.73,0,0,1-.29-13.77s6.9-6.08,8.18-20.43c0,0,2.56-1.59,2.56-6.58s-3.15-5-3.15-5S163.91,0,137.59,0C86.64,0,83.09,67.76,2.17,61c0,0,9.07,5.58,14.68,5.08A108.11,108.11,0,0,1,0,68.45s14.59,7.88,23.36,6.18A96.51,96.51,0,0,1,5.62,82S19,88.28,30.55,85.2c0,0-2.56,4.58-7.49,5.58,0,0,19.91,3.18,30.85-1C53.91,89.78,48.94,96.85,44.5,97.9Z"/><path class="cls-2" d="M200.46,120.8c5.73,7.56,12.3,15.88,16.87,20.59,0,0-3,15.75-6.51,23.32s-18.13,25.51-18.13,25.51a22.44,22.44,0,0,1-11-2.35l2.16,17.42,1.44,1.62h10.73a3.6,3.6,0,0,0,3-1.56c3.11-4.52,12.48-17.89,21-27.44,10.35-11.65,19.22-30.79,18.78-33.33s-.45-6.27-12.72-24.21c-3.05-4.46-6.43-9.24-9.87-14A37.31,37.31,0,0,1,200.46,120.8Z"/><path class="cls-2" d="M225.13,469.6H209.54c.22,4.67.3,7.59.3,7.59a52.41,52.41,0,0,0-.37,15.45,2.3,2.3,0,0,0,2.28,2H227a2.32,2.32,0,0,0,2.31-2.35c0-7.32-2.33-14.93-3.81-20.57C225.41,471.24,225.28,470.52,225.13,469.6Z"/><path class="cls-2" d="M85.66,201.19,88,199a149.07,149.07,0,0,1,6-14.84L93.9,184a18.18,18.18,0,0,1-13.77-7.72c-6.31-9.37-10.45-14.15-11.24-18.73s-4.33-13.75-6.3-15.55c0,0,11-8.9,21.37-17.4a44.77,44.77,0,0,1-14.7-15.5c-11.09,10.88-21.78,22-26.09,28.62,0,0-5.47,5.38-.74,13.3s31.64,40.06,37,48.28C79.39,199.29,80.86,200.84,85.66,201.19Z"/><path class="cls-2" d="M85.77,469.6H71.86c-.17,2.21-.39,4.11-.65,5.64-1.95,11.48-6.77,8.92-8.8,17.9a1.23,1.23,0,0,0,1.2,1.49h22a3.58,3.58,0,0,0,3.56-3.84,19.64,19.64,0,0,1,0-4.39c.44-2.24.59-5.38-2.22-10.31C86.45,475.23,86,473,85.77,469.6Z"/><path class="cls-3" d="M186.09,142.69a61.3,61.3,0,0,0-2.5,5.85c-2.83,9.45-.85,24.52.67,32.26a17.51,17.51,0,0,0,5.06,1.76c3.25-4.1,7.16-9.25,10.23-13.66C194.93,158.79,190.43,150.13,186.09,142.69Z"/><path class="cls-3" d="M105.9,144a59,59,0,0,1-8.48-14.71,241.64,241.64,0,0,0-8.83,45.21,12.24,12.24,0,0,0,5.72,2.06C101,166,106.55,148.85,105.9,144Z"/><path class="cls-3" d="M193.68,412a177.22,177.22,0,0,1-19.58-62.39c-12.54-16.76-29-65.32-32.16-78.71A80.12,80.12,0,0,0,134.38,252c-1.42,11.15-4,21.9-6.26,31.49-2.55,10.71-5,20.83-5.33,29.39a67.9,67.9,0,0,1-1.3,10.56c12.82,46.91,4.49,85.66,4.49,85.66,8.71-6.1,16-4.09,16-4.09.27,11.83,14.15,14,14.15,14,14.39-8.73,23.08-7,38.92-3.81A26.39,26.39,0,0,0,193.68,412Z"/><path class="cls-3" d="M387.29,320.49c-10.56-9.29-22.21-17.35-35-22.89a90.24,90.24,0,0,0-19.76-6.18l-5.29-1c-1.77-.34-3.53-.76-5.3-1.14s-3.51-.89-5.26-1.33-3.48-1-5.22-1.47a179.38,179.38,0,0,1-39.66-17.3,164,164,0,0,1-17.75-12.41c-2.81-2.26-5.55-4.61-8.18-7.08s-5.13-5.08-7.51-7.79h0a.52.52,0,0,1,0-.73.5.5,0,0,1,.71,0,131.51,131.51,0,0,0,16,14.21A162,162,0,0,0,273,267.16a177,177,0,0,0,39.34,16.42,200.23,200.23,0,0,0,20.84,4.63,93.87,93.87,0,0,1,20.52,6.24c13.19,5.67,25.13,13.93,35.91,23.37a218.92,218.92,0,0,1,19.19,19.1A48.42,48.42,0,0,1,428,333c-9-3-8.71-7.71-8.71-7.71,36.46-19,55.24,11.56,55.24,11.56a56.25,56.25,0,0,0,.75-19.6,88.76,88.76,0,0,0-4.14-8.42A84.71,84.71,0,0,0,441,277.22a106.64,106.64,0,0,0-20-9.59c-14.05-5-29-7.65-44.08-9.15h0a.52.52,0,0,1,.07-1c15.2.44,30.46,2.54,45,7.33A112.16,112.16,0,0,1,432.56,269c1.76.75,3.45,1.66,5.16,2.5s3.37,1.81,5,2.83,3.23,2.05,4.82,3.11,3.12,2.23,4.61,3.44a85.29,85.29,0,0,1,22,26.32c.34.62.66,1.25,1,1.88A108,108,0,0,1,500,317.82c-29.39-89.14-107.77-93.26-132.26-88.22-21.82,4.49-108.48,19.91-152.51-34-4.65,6.13-8.56,11.74-10.14,14a11,11,0,0,1-9,4.77h-7.83a71.88,71.88,0,0,0,3.35,13.31c9.6,19.93,11.5,66.7,11.8,76.44,6.51,13.29,10,28.23,11.08,33.36,9.22,12.33,12,23.44,12.32,47.64.1,8.16.91,18.42,2,28.57a41.5,41.5,0,0,0,8.5-4.57l3,9.94c12.25-.82,9.8-15.13,29.39-18.71s20.41,11.83,20.41,11.83a28.72,28.72,0,0,0,12.6-3.86,197.85,197.85,0,0,0-8.16-26.59,144.44,144.44,0,0,0-14.24-28.05,107,107,0,0,0-20.55-23.38l-6.16-5.15c-2-1.79-4.1-3.56-6.07-5.42-4-3.67-7.83-7.52-11.46-11.57s-7.11-8.21-10.35-12.58-6.27-8.88-9.06-13.54a145.58,145.58,0,0,1-7.43-14.5,84.05,84.05,0,0,1-5.31-15.39.52.52,0,0,1,.39-.62.51.51,0,0,1,.6.37,72.41,72.41,0,0,0,2.6,7.55c1,2.49,2.09,4.93,3.25,7.34a144.15,144.15,0,0,0,7.81,14,173.75,173.75,0,0,0,19.67,25.28,215.9,215.9,0,0,0,23.67,21.57,109.63,109.63,0,0,1,21.3,24.07,146.38,146.38,0,0,1,14.52,28.79,195.15,195.15,0,0,1,7.76,26.07c11.18-7.75,19.46-22.25,24.08-35.66a30.61,30.61,0,0,1,24.76-20.63l6,8s23.41,5.78,34.56-10.17a31.9,31.9,0,0,1,10.73-9.57A212.86,212.86,0,0,0,387.29,320.49Z"/></svg>