<svg xmlns="http://www.w3.org/2000/svg" id="Layer_1" data-name="Layer 1" viewBox="0 0 447.95 165.3"><defs><style>.cls-1{fill:#5fc4b2}.cls-2{font-size:88px;fill:#d8e3e7;font-family:BankGothicBT-Light,BankGothic Lt BT;font-weight:300}.cls-3{letter-spacing:.04em}.cls-4{letter-spacing:.02em}</style></defs><path d="M202.84,78.13c-5.24-.29-15.07-1.76-20.67-4.61-7.76-3.93-17.78-5.92-29.76-5.92a64.1,64.1,0,0,0-13,1.35c-13.49-2.22-31.91-2.34-35.52-2.34s-22,.12-35.52,2.34a64,64,0,0,0-13-1.35c-12,0-22,2-29.77,5.93-5.6,2.84-15.43,4.31-20.67,4.6A5.17,5.17,0,0,0,0,83.3v4.62a5.92,5.92,0,0,0,2.54,4.85,11.22,11.22,0,0,1,5.13,9.13c0,12,3.32,23.26,9.34,31.72,7.91,11.1,19.73,17,34.2,17A43.72,43.72,0,0,0,86.58,133a54.51,54.51,0,0,0,11-32.56,31,31,0,0,0-1.49-9.64,23.92,23.92,0,0,1,15.44,0,31,31,0,0,0-1.48,9.64,54.5,54.5,0,0,0,11,32.56,43.73,43.73,0,0,0,35.37,17.56c14.47,0,26.3-5.87,34.2-17,6-8.46,9.35-19.73,9.35-31.72a11.24,11.24,0,0,1,5.12-9.13,5.92,5.92,0,0,0,2.54-4.85V83.3A5.17,5.17,0,0,0,202.84,78.13Zm-121.33,51a37.47,37.47,0,0,1-30.3,15.05c-12.31,0-22.33-4.94-29-14.28-5.26-7.39-8.16-17.34-8.16-28,0-7.81-5.21-12.47-7.67-14.24V84.44C12,84,22,82.53,28.44,79.23,35.3,75.76,44.35,74,55.32,74c4.72,0,13.86.62,22,4.75,9,4.57,13.92,12.28,13.92,21.72A48.07,48.07,0,0,1,81.51,129.14Zm22.35-46A27.39,27.39,0,0,0,93.48,85,31.57,31.57,0,0,0,81.69,73.85c10-.78,19.69-.84,22.17-.84s12.14.06,22.18.84A31.6,31.6,0,0,0,114.24,85,27.39,27.39,0,0,0,103.86,83.15Zm97.47,4.51h0c-2.47,1.77-7.67,6.43-7.67,14.24,0,10.67-2.9,20.62-8.16,28-6.65,9.35-16.68,14.28-29,14.28a37.44,37.44,0,0,1-30.29-15.05,48,48,0,0,1-9.72-28.67c0-9.44,4.94-17.15,13.92-21.72,8.13-4.13,17.26-4.75,22-4.75,11,0,20,1.76,26.87,5.23,6.49,3.3,16.41,4.78,22.05,5.21v3.22Z" class="cls-1" transform="translate(0 14.7)"/><path d="M76.07,81.19c-7.91-4-17.15-4.46-20.75-4.46-24.48,0-38.52,9.18-38.52,25.17,0,10.11,2.72,19.49,7.65,26.43,6.12,8.59,15.37,13.13,26.76,13.13a34.45,34.45,0,0,0,28.13-14,45.85,45.85,0,0,0,9.15-27C88.49,92,84.2,85.33,76.07,81.19Zm-1.81,42.39a28.23,28.23,0,0,1-23.05,11.48c-9.36,0-16.61-3.51-21.54-10.44-4.17-5.86-6.47-13.93-6.47-22.72,0-6.58,3.06-11.33,9.36-14.52,5.5-2.78,13.37-4.25,22.76-4.25,3.14,0,11.17.37,17.85,3.76,6,3.06,8.92,7.5,8.92,13.58A39.22,39.22,0,0,1,74.26,123.58Z" class="cls-1" transform="translate(0 14.7)"/><path d="M131.66,81.19c-8.13,4.14-12.43,10.8-12.43,19.28a45.81,45.81,0,0,0,9.16,27,34.41,34.41,0,0,0,28.12,14c11.39,0,20.64-4.54,26.76-13.13,4.93-6.94,7.65-16.32,7.65-26.43,0-16-14-25.17-38.51-25.17C148.8,76.73,139.56,77.17,131.66,81.19Zm52.86,20.71c0,8.79-2.29,16.86-6.46,22.72-4.94,6.93-12.19,10.44-21.55,10.44a28.23,28.23,0,0,1-23-11.48,39.31,39.31,0,0,1-7.83-23.11c0-6.08,2.92-10.52,8.93-13.58,6.67-3.39,14.7-3.76,17.85-3.76,9.39,0,17.26,1.47,22.75,4.25C181.46,90.57,184.52,95.32,184.52,101.9Z" class="cls-1" transform="translate(0 14.7)"/><text class="cls-2" transform="translate(72.5 66.7)">c<tspan x="54.23" y="0" class="cls-3">l</tspan><tspan x="104.54" y="0">a</tspan><tspan x="159.72" y="0" class="cls-4">r</tspan><tspan x="215.27" y="0">a</tspan></text><text class="cls-2" transform="translate(215.53 137.22)">ptic</text></svg>